<svg width="340" height="278" viewBox="0 0 340 278" fill="none" xmlns="http://www.w3.org/2000/svg">
<g filter="url(#filter0_d)">
<path d="M146.147 102.017L159.83 104.022L130.193 123.742L115.938 120.776L96.5865 116.68L67.1725 84.7457L62.2559 65.5539L86.1683 70.318L108.319 85.2382L113.781 91.3552L128.365 98.8086L146.147 102.017Z" fill="url(#paint0_radial)"/>
<path d="M146.147 102.017L159.83 104.022L130.193 123.742L115.938 120.776L96.5865 116.68L67.1725 84.7457L62.2559 65.5539L86.1683 70.318L108.319 85.2382L113.781 91.3552L128.365 98.8086L146.147 102.017Z" stroke="black"/>
</g>
<g filter="url(#filter1_d)">
<path d="M204.221 87.2306L180.202 101.525L202.608 119.936L212.083 119.241L230.011 124.444L240.483 123.676L259.114 104.262L261.069 83.0624L278.236 43.7016L248.985 41.3343L245.823 46.0782L238.343 46.6266L215.82 60.8116L204.221 87.2306Z" fill="url(#paint1_linear)"/>
<path d="M204.221 87.2306L180.202 101.525L202.608 119.936L212.083 119.241L230.011 124.444L240.483 123.676L259.114 104.262L261.069 83.0624L278.236 43.7016L248.985 41.3343L245.823 46.0782L238.343 46.6266L215.82 60.8116L204.221 87.2306Z" stroke="black"/>
</g>
<g filter="url(#filter2_f)">
<path d="M130.07 115.228L146.719 102.978L125.482 100.524L112.674 89.9323L87.385 73.2369L73.5921 69.7361L88.7379 91.6873L109.332 112.738L130.07 115.228Z" fill="url(#paint2_angular)"/>
<path d="M130.07 115.228L146.719 102.978L125.482 100.524L112.674 89.9323L87.385 73.2369L73.5921 69.7361L88.7379 91.6873L109.332 112.738L130.07 115.228Z" stroke="#FBAD0E"/>
</g>
<g filter="url(#filter3_f)">
<path d="M206.276 81.0638L180.166 101.027L197.865 116.774L216.814 115.385L239.423 109.215L260.869 52.9964L234.853 46.8826L216.246 59.7777L206.276 81.0638Z" fill="url(#paint3_radial)"/>
<path d="M206.276 81.0638L180.166 101.027L197.865 116.774L216.814 115.385L239.423 109.215L260.869 52.9964L234.853 46.8826L216.246 59.7777L206.276 81.0638Z" stroke="black"/>
</g>
<g filter="url(#filter4_d)">
<path d="M23.1775 65.9125L33.4604 21.5417L13.0083 57.1326L11.8273 129.914L17.9443 124.452L30.6364 167.639L45.4896 185.601L50.2071 174.727L56.9456 177.743L58.7372 202.177L70.1364 220.894L72.8958 210.664L79.7673 208.656L96.1064 240.046L102.759 235.046L107.037 218.188L117.353 228.962L124.248 220.435L148.443 242.726L150.461 236.06L162.272 246.725L164.898 241.519L171.151 251.589L182.834 212.63L191.327 239.581L212.055 255.609L242.198 201.76L241.217 229.406L264.382 196.624L265.113 206.597L279.973 190.468L285.837 202.07L305.897 147.457L303.046 108.561L316.449 113.594L320.848 84.6953L324.388 91.9559L321.317 50.0683L306.451 25.0885L311.148 41.2884L312.318 57.2456L310.655 82.4346L296.753 77.4379L301.4 86.1213L284.725 84.3359L288.125 130.711L267.082 117.214L270.629 165.584L261.347 155.235L253.431 170.355L247.055 151.771L234.891 143.137L212.022 200.463L206.497 179.812L184.965 152.814L174.839 185.643L163.583 148.366L152.143 183.797L150.937 167.342L146.219 178.216L143.214 171.417L136.957 215.994L122.889 160.875L113.916 182.088L107.759 166.497L95.4654 183.441L88.1053 171.948L95.8117 140.3L91.8091 133.575L86.1675 145.519L82.1782 145.812L78.3118 154.618L77.1052 138.162L65.0176 151.081L62.5507 165.299L59.0336 151.52L59.6988 126.404L66.0585 117.415L65.0347 103.452L52.8506 121.892L45.0883 104.915L40.6267 119.279L29.6297 106.048L31.8975 61.7637L24.0916 78.379L23.1775 65.9125Z" fill="url(#paint4_linear)"/>
<path d="M23.1775 65.9125L33.4604 21.5417L13.0083 57.1326L11.8273 129.914L17.9443 124.452L30.6364 167.639L45.4896 185.601L50.2071 174.727L56.9456 177.743L58.7372 202.177L70.1364 220.894L72.8958 210.664L79.7673 208.656L96.1064 240.046L102.759 235.046L107.037 218.188L117.353 228.962L124.248 220.435L148.443 242.726L150.461 236.06L162.272 246.725L164.898 241.519L171.151 251.589L182.834 212.63L191.327 239.581L212.055 255.609L242.198 201.76L241.217 229.406L264.382 196.624L265.113 206.597L279.973 190.468L285.837 202.07L305.897 147.457L303.046 108.561L316.449 113.594L320.848 84.6953L324.388 91.9559L321.317 50.0683L306.451 25.0885L311.148 41.2884L312.318 57.2456L310.655 82.4346L296.753 77.4379L301.4 86.1213L284.725 84.3359L288.125 130.711L267.082 117.214L270.629 165.584L261.347 155.235L253.431 170.355L247.055 151.771L234.891 143.137L212.022 200.463L206.497 179.812L184.965 152.814L174.839 185.643L163.583 148.366L152.143 183.797L150.937 167.342L146.219 178.216L143.214 171.417L136.957 215.994L122.889 160.875L113.916 182.088L107.759 166.497L95.4654 183.441L88.1053 171.948L95.8117 140.3L91.8091 133.575L86.1675 145.519L82.1782 145.812L78.3118 154.618L77.1052 138.162L65.0176 151.081L62.5507 165.299L59.0336 151.52L59.6988 126.404L66.0585 117.415L65.0347 103.452L52.8506 121.892L45.0883 104.915L40.6267 119.279L29.6297 106.048L31.8975 61.7637L24.0916 78.379L23.1775 65.9125Z" stroke="black"/>
</g>
<defs>
<filter id="filter0_d" x="58.2559" y="58.6435" width="106.854" height="77.7417" filterUnits="userSpaceOnUse" color-interpolation-filters="sRGB">
<feFlood flood-opacity="0" result="BackgroundImageFix"/>
<feColorMatrix in="SourceAlpha" type="matrix" values="0 0 0 0 0 0 0 0 0 0 0 0 0 0 0 0 0 0 127 0"/>
<feOffset dy="4"/>
<feGaussianBlur stdDeviation="2"/>
<feColorMatrix type="matrix" values="0 0 0 0 0.905882 0 0 0 0 0.227451 0 0 0 0 0.027451 0 0 0 1 0"/>
<feBlend mode="normal" in2="BackgroundImageFix" result="effect1_dropShadow"/>
<feBlend mode="normal" in="SourceGraphic" in2="effect1_dropShadow" result="shape"/>
</filter>
<filter id="filter1_d" x="172.18" y="39.2136" width="115.687" height="96.7407" filterUnits="userSpaceOnUse" color-interpolation-filters="sRGB">
<feFlood flood-opacity="0" result="BackgroundImageFix"/>
<feColorMatrix in="SourceAlpha" type="matrix" values="0 0 0 0 0 0 0 0 0 0 0 0 0 0 0 0 0 0 127 0"/>
<feOffset dy="4"/>
<feGaussianBlur stdDeviation="2"/>
<feColorMatrix type="matrix" values="0 0 0 0 0.917647 0 0 0 0 0.25098 0 0 0 0 0.0313726 0 0 0 1 0"/>
<feBlend mode="normal" in2="BackgroundImageFix" result="effect1_dropShadow"/>
<feBlend mode="normal" in="SourceGraphic" in2="effect1_dropShadow" result="shape"/>
</filter>
<filter id="filter2_f" x="69.5921" y="60.5807" width="81.931" height="62.5229" filterUnits="userSpaceOnUse" color-interpolation-filters="sRGB">
<feFlood flood-opacity="0" result="BackgroundImageFix"/>
<feBlend mode="normal" in="SourceGraphic" in2="BackgroundImageFix" result="shape"/>
<feGaussianBlur stdDeviation="2" result="effect1_foregroundBlur"/>
</filter>
<filter id="filter3_f" x="172.509" y="41.0179" width="96.6746" height="80.9632" filterUnits="userSpaceOnUse" color-interpolation-filters="sRGB">
<feFlood flood-opacity="0" result="BackgroundImageFix"/>
<feBlend mode="normal" in="SourceGraphic" in2="BackgroundImageFix" result="shape"/>
<feGaussianBlur stdDeviation="2" result="effect1_foregroundBlur"/>
</filter>
<filter id="filter4_d" x="0.0393677" y="0.700821" width="339.684" height="276.838" filterUnits="userSpaceOnUse" color-interpolation-filters="sRGB">
<feFlood flood-opacity="0" result="BackgroundImageFix"/>
<feColorMatrix in="SourceAlpha" type="matrix" values="0 0 0 0 0 0 0 0 0 0 0 0 0 0 0 0 0 0 127 0"/>
<feOffset dy="4"/>
<feGaussianBlur stdDeviation="2"/>
<feColorMatrix type="matrix" values="0 0 0 0 0.8 0 0 0 0 0.152941 0 0 0 0 0.0862745 0 0 0 1 0"/>
<feBlend mode="normal" in2="BackgroundImageFix" result="effect1_dropShadow"/>
<feBlend mode="normal" in="SourceGraphic" in2="effect1_dropShadow" result="shape"/>
</filter>
<radialGradient id="paint0_radial" cx="0" cy="0" r="1" gradientUnits="userSpaceOnUse" gradientTransform="translate(83.6416 90.557) rotate(27.69) scale(74.783 112.175)">
<stop stop-color="#470909"/>
<stop offset="0.885417" stop-color="#6A0404"/>
</radialGradient>
<linearGradient id="paint1_linear" x1="190.169" y1="59.6844" x2="233.003" y2="124.225" gradientUnits="userSpaceOnUse">
<stop offset="0.443507" stop-color="#6A0404"/>
<stop offset="0.857137" stop-color="#470909"/>
</linearGradient>
<radialGradient id="paint2_angular" cx="0" cy="0" r="1" gradientUnits="userSpaceOnUse" gradientTransform="translate(100.317 92.3424) rotate(63.5128) scale(27.0197 38.4826)">
<stop offset="0.4375" stop-color="#C45959"/>
<stop offset="0.96875" stop-color="#9C3232"/>
</radialGradient>
<radialGradient id="paint3_radial" cx="0" cy="0" r="1" gradientUnits="userSpaceOnUse" gradientTransform="translate(215.86 81.8651) rotate(77.3175) scale(33.8711 42.4652)">
<stop offset="0.432873" stop-color="#9C3232"/>
<stop offset="1" stop-color="#C45959"/>
</radialGradient>
<linearGradient id="paint4_linear" x1="33.8244" y1="176.931" x2="261.64" y2="84.0231" gradientUnits="userSpaceOnUse">
<stop stop-color="#3F0505"/>
<stop offset="0.416667" stop-color="#A32626"/>
<stop offset="0.5625" stop-color="#FFE1E1"/>
<stop offset="0.599044" stop-color="#B03939"/>
<stop offset="0.755208" stop-color="#CB6060"/>
<stop offset="0.914643" stop-color="#8A1616"/>
<stop offset="1" stop-color="#6A0404"/>
</linearGradient>
</defs>
</svg>
