<svg width="221" height="66" viewBox="0 0 221 66" fill="none" xmlns="http://www.w3.org/2000/svg">
<g filter="url(#filter0_i)">
<path d="M10.125 48.1992C10.125 45.7148 9.99609 43.582 9.73828 41.8008C9.48047 40.0195 9.14062 38.4727 8.71875 37.1602C8.29688 35.8242 7.81641 34.6641 7.27734 33.6797C6.73828 32.6953 6.1875 31.7695 5.625 30.9023C5.0625 30.0352 4.51172 29.168 3.97266 28.3008C3.43359 27.4336 2.95312 26.4492 2.53125 25.3477C2.10938 24.2461 1.76953 22.9805 1.51172 21.5508C1.25391 20.0977 1.125 18.3633 1.125 16.3477V7.875C1.125 7.3125 1.20703 6.67969 1.37109 5.97656C1.55859 5.25 1.89844 4.58203 2.39062 3.97266C2.88281 3.33984 3.5625 2.8125 4.42969 2.39062C5.32031 1.94531 6.46875 1.72266 7.875 1.72266C9.28125 1.72266 10.418 1.94531 11.2852 2.39062C12.1758 2.8125 12.8672 3.33984 13.3594 3.97266C13.8516 4.58203 14.1797 5.25 14.3438 5.97656C14.5312 6.67969 14.625 7.3125 14.625 7.875V23.625H10.125V7.875C10.125 7.3125 10.0547 6.85547 9.91406 6.50391C9.79688 6.12891 9.63281 5.84766 9.42188 5.66016C9.21094 5.44922 8.96484 5.30859 8.68359 5.23828C8.42578 5.14453 8.15625 5.09766 7.875 5.09766C7.59375 5.09766 7.3125 5.14453 7.03125 5.23828C6.77344 5.30859 6.53906 5.44922 6.32812 5.66016C6.11719 5.84766 5.94141 6.12891 5.80078 6.50391C5.68359 6.85547 5.625 7.3125 5.625 7.875V14.7305C5.625 17.3789 5.84766 19.5938 6.29297 21.375C6.73828 23.1562 7.28906 24.7148 7.94531 26.0508C8.625 27.3633 9.35156 28.5586 10.125 29.6367C10.8984 30.7148 11.6133 31.8867 12.2695 33.1523C12.9492 34.3945 13.5117 35.8477 13.957 37.5117C14.4023 39.1523 14.625 41.2031 14.625 43.6641V57.375C14.625 57.6562 14.5898 58.1719 14.5195 58.9219C14.4492 59.6484 14.2031 60.3984 13.7812 61.1719C13.3594 61.9453 12.6914 62.625 11.7773 63.2109C10.8633 63.8203 9.5625 64.125 7.875 64.125C6.1875 64.125 4.88672 63.8203 3.97266 63.2109C3.05859 62.625 2.39062 61.9453 1.96875 61.1719C1.54688 60.3984 1.30078 59.6484 1.23047 58.9219C1.16016 58.1719 1.125 57.6562 1.125 57.375V37.125H5.625V57.375C5.625 57.6562 5.63672 57.9961 5.66016 58.3945C5.68359 58.7695 5.76562 59.1328 5.90625 59.4844C6.04688 59.8359 6.26953 60.1406 6.57422 60.3984C6.87891 60.6328 7.3125 60.75 7.875 60.75C8.4375 60.75 8.87109 60.6328 9.17578 60.3984C9.48047 60.1406 9.70312 59.8359 9.84375 59.4844C9.98438 59.1328 10.0664 58.7695 10.0898 58.3945C10.1133 57.9961 10.125 57.6562 10.125 57.375V48.1992ZM31.5 31.5H27V14.0625C27 13.2656 26.8008 12.7031 26.4023 12.375C26.0039 12.0234 25.5469 11.8477 25.0312 11.8477C24.7266 11.8477 24.4219 11.9063 24.1172 12.0234C23.8359 12.1172 23.5664 12.2695 23.3086 12.4805C23.0742 12.668 22.875 12.9023 22.7109 13.1836C22.5703 13.4414 22.5 13.7344 22.5 14.0625V57.9375C22.5 58.2656 22.5703 58.5703 22.7109 58.8516C22.875 59.1328 23.0742 59.3789 23.3086 59.5898C23.5664 59.7773 23.8359 59.9297 24.1172 60.0469C24.4219 60.1406 24.7266 60.1875 25.0312 60.1875C25.5469 60.1875 26.0039 60.0117 26.4023 59.6602C26.8008 59.3086 27 58.7344 27 57.9375V38.25H31.5V57.9375C31.5 58.875 31.3008 59.707 30.9023 60.4336C30.5039 61.1367 29.9883 61.7344 29.3555 62.2266C28.7227 62.6953 27.9961 63.0469 27.1758 63.2812C26.3555 63.5391 25.5234 63.668 24.6797 63.668C23.8359 63.668 23.0156 63.5508 22.2188 63.3164C21.4219 63.082 20.707 62.7305 20.0742 62.2617C19.4414 61.7695 18.9375 61.1719 18.5625 60.4688C18.1875 59.7422 18 58.8984 18 57.9375V14.0625C18 13.125 18.1875 12.293 18.5625 11.5664C18.9609 10.8398 19.4766 10.2422 20.1094 9.77344C20.7422 9.30469 21.4688 8.95313 22.2891 8.71875C23.1094 8.46094 23.9414 8.33203 24.7852 8.33203C25.6289 8.33203 26.4492 8.44922 27.2461 8.68359C28.043 8.91797 28.7578 9.28125 29.3906 9.77344C30.0234 10.2422 30.5273 10.8398 30.9023 11.5664C31.3008 12.2695 31.5 13.1016 31.5 14.0625V31.5ZM48.375 63H43.875L43.1719 51.3281H40.043L39.375 63H34.875L39.375 9H43.875L48.375 63ZM42.9258 47.6719L41.625 20.25L40.2891 47.6719H42.9258ZM64.125 31.5C64.125 32.625 63.8438 33.4922 63.2812 34.1016C62.7188 34.7109 61.875 35.1445 60.75 35.4023C61.875 35.707 62.7188 36.1641 63.2812 36.7734C63.8438 37.3828 64.125 38.25 64.125 39.375V63H59.625V39.375C59.625 38.8125 59.5547 38.3789 59.4141 38.0742C59.2734 37.7695 59.0625 37.5469 58.7812 37.4062C58.5 37.2656 58.1484 37.1836 57.7266 37.1602C57.3047 37.1367 56.8125 37.125 56.25 37.125V63H51.75V9H56.8125C58.3359 9 59.6367 9.12891 60.7148 9.38672C61.8164 9.62109 62.6602 10.0547 63.2461 10.6875C63.832 11.2969 64.125 12.2344 64.125 13.5V31.5ZM59.625 14.625C59.625 14.0625 59.5547 13.6289 59.4141 13.3242C59.2734 13.0195 59.0625 12.7969 58.7812 12.6562C58.5 12.5156 58.1484 12.4336 57.7266 12.4102C57.3047 12.3867 56.8125 12.375 56.25 12.375V33.75C56.8125 33.75 57.3047 33.7383 57.7266 33.7148C58.1484 33.6914 58.5 33.6094 58.7812 33.4688C59.0625 33.3281 59.2734 33.1055 59.4141 32.8008C59.5547 32.4961 59.625 32.0625 59.625 31.5V14.625ZM77.625 12.375H73.125V32.625H77.625V36H73.125V59.625H77.625V63H68.625V9H77.625V12.375ZM96.75 38.25H79.875V33.75H96.75V38.25ZM113.625 57.375C113.625 57.6562 113.59 58.1719 113.52 58.9219C113.449 59.6484 113.203 60.3984 112.781 61.1719C112.359 61.9453 111.691 62.625 110.777 63.2109C109.863 63.8203 108.562 64.125 106.875 64.125C105.188 64.125 103.887 63.8203 102.973 63.2109C102.059 62.625 101.391 61.9453 100.969 61.1719C100.547 60.3984 100.301 59.6484 100.23 58.9219C100.16 58.1719 100.125 57.6562 100.125 57.375V7.875C100.125 7.6875 100.137 7.40625 100.16 7.03125C100.184 6.65625 100.254 6.24609 100.371 5.80078C100.488 5.33203 100.688 4.86328 100.969 4.39453C101.25 3.90234 101.637 3.45703 102.129 3.05859C102.621 2.66016 103.254 2.34375 104.027 2.10938C104.801 1.85156 105.75 1.72266 106.875 1.72266C108 1.72266 108.949 1.85156 109.723 2.10938C110.496 2.34375 111.129 2.66016 111.621 3.05859C112.113 3.45703 112.5 3.90234 112.781 4.39453C113.062 4.86328 113.262 5.33203 113.379 5.80078C113.496 6.24609 113.566 6.65625 113.59 7.03125C113.613 7.40625 113.625 7.6875 113.625 7.875V57.375ZM104.625 57.375C104.625 57.6562 104.637 57.9961 104.66 58.3945C104.684 58.7695 104.766 59.1328 104.906 59.4844C105.047 59.8359 105.27 60.1406 105.574 60.3984C105.879 60.6328 106.312 60.75 106.875 60.75C107.438 60.75 107.871 60.6328 108.176 60.3984C108.48 60.1406 108.703 59.8359 108.844 59.4844C108.984 59.1328 109.066 58.7695 109.09 58.3945C109.113 57.9961 109.125 57.6562 109.125 57.375V7.875C109.125 7.59375 109.113 7.28906 109.09 6.96094C109.066 6.63281 108.984 6.33984 108.844 6.08203C108.703 5.80078 108.48 5.56641 108.176 5.37891C107.871 5.19141 107.438 5.09766 106.875 5.09766C106.312 5.09766 105.879 5.19141 105.574 5.37891C105.27 5.56641 105.047 5.80078 104.906 6.08203C104.766 6.33984 104.684 6.63281 104.66 6.96094C104.637 7.28906 104.625 7.59375 104.625 7.875V57.375ZM133.875 38.25H117V33.75H133.875V38.25ZM150.75 27C150.75 28.6875 150.469 29.8594 149.906 30.5156C149.344 31.1719 148.5 31.5 147.375 31.5C147.938 31.5 148.43 31.6289 148.852 31.8867C149.273 32.1445 149.625 32.4844 149.906 32.9062C150.188 33.3281 150.398 33.8086 150.539 34.3477C150.68 34.8867 150.75 35.4375 150.75 36V63H146.25V34.875C146.25 34.3125 146.121 33.8789 145.863 33.5742C145.605 33.2695 145.266 33.0469 144.844 32.9062C144.422 32.7656 143.941 32.6836 143.402 32.6602C142.863 32.6367 142.312 32.625 141.75 32.625V63H137.25V2.25H141.75C142.875 2.25 143.977 2.28516 145.055 2.35547C146.133 2.40234 147.094 2.60156 147.938 2.95312C148.781 3.30469 149.461 3.86719 149.977 4.64062C150.492 5.39062 150.75 6.46875 150.75 7.875V27ZM146.25 7.875C146.25 7.3125 146.168 6.87891 146.004 6.57422C145.863 6.26953 145.617 6.04688 145.266 5.90625C144.914 5.76562 144.445 5.68359 143.859 5.66016C143.297 5.63672 142.594 5.625 141.75 5.625V30.375C142.312 30.375 142.863 30.3633 143.402 30.3398C143.941 30.3164 144.422 30.2344 144.844 30.0938C145.266 29.9531 145.605 29.7305 145.863 29.4258C146.121 29.1211 146.25 28.6875 146.25 28.125V7.875ZM167.625 63H163.125L162.422 51.3281H159.293L158.625 63H154.125L158.625 9H163.125L167.625 63ZM162.176 47.6719L160.875 20.25L159.539 47.6719H162.176ZM182.812 9V12.375H178.312V63H173.812V12.375H169.312V9H182.812ZM194.625 12.375H190.125V32.625H194.625V36H190.125V59.625H194.625V63H185.625V9H194.625V12.375ZM210.375 31.5C210.375 32.625 210.094 33.4922 209.531 34.1016C208.969 34.7109 208.125 35.1445 207 35.4023C208.125 35.707 208.969 36.1641 209.531 36.7734C210.094 37.3828 210.375 38.25 210.375 39.375V63H205.875V39.375C205.875 38.8125 205.805 38.3789 205.664 38.0742C205.523 37.7695 205.312 37.5469 205.031 37.4062C204.75 37.2656 204.398 37.1836 203.977 37.1602C203.555 37.1367 203.062 37.125 202.5 37.125V63H198V9H203.062C204.586 9 205.887 9.12891 206.965 9.38672C208.066 9.62109 208.91 10.0547 209.496 10.6875C210.082 11.2969 210.375 12.2344 210.375 13.5V31.5ZM205.875 14.625C205.875 14.0625 205.805 13.6289 205.664 13.3242C205.523 13.0195 205.312 12.7969 205.031 12.6562C204.75 12.5156 204.398 12.4336 203.977 12.4102C203.555 12.3867 203.062 12.375 202.5 12.375V33.75C203.062 33.75 203.555 33.7383 203.977 33.7148C204.398 33.6914 204.75 33.6094 205.031 33.4688C205.312 33.3281 205.523 33.1055 205.664 32.8008C205.805 32.4961 205.875 32.0625 205.875 31.5V14.625Z" fill="white"/>
</g>
<defs>
<filter id="filter0_i" x="1.125" y="1.72266" width="209.25" height="66.4023" filterUnits="userSpaceOnUse" color-interpolation-filters="sRGB">
<feFlood flood-opacity="0" result="BackgroundImageFix"/>
<feBlend mode="normal" in="SourceGraphic" in2="BackgroundImageFix" result="shape"/>
<feColorMatrix in="SourceAlpha" type="matrix" values="0 0 0 0 0 0 0 0 0 0 0 0 0 0 0 0 0 0 127 0" result="hardAlpha"/>
<feOffset dy="4"/>
<feGaussianBlur stdDeviation="2"/>
<feComposite in2="hardAlpha" operator="arithmetic" k2="-1" k3="1"/>
<feColorMatrix type="matrix" values="0 0 0 0 0.416667 0 0 0 0 0.0173611 0 0 0 0 0.0173611 0 0 0 1 0"/>
<feBlend mode="normal" in2="shape" result="effect1_innerShadow"/>
</filter>
</defs>
</svg>
