<svg width="309" height="392" viewBox="0 0 309 392" fill="none" xmlns="http://www.w3.org/2000/svg">
<path d="M259.077 196.303C260.308 194.252 261.334 191.995 262.154 189.738C275.08 155.066 227.072 150.963 203.068 155.271C198.76 136.396 195.067 116.906 187.066 100.083C181.526 88.3887 174.961 77.1048 168.807 65.8209C165.319 59.461 162.447 52.6906 160.6 45.7152C153.42 22.7371 185.835 43.6636 191.375 46.741C191.58 46.741 191.784 46.741 191.784 46.741C191.784 46.9461 191.99 46.9461 191.99 47.1513C193.837 51.0494 199.376 47.5616 197.734 43.8687C186.86 19.4546 164.703 -11.7299 132.493 4.47781C116.9 12.2739 112.797 50.4339 109.104 63.7693C100.282 95.5693 93.1018 128.19 91.2553 161.221C91.0502 161.016 90.845 160.81 90.6399 160.81C59.6606 155.681 27.04 173.325 46.3251 207.588C46.5302 207.793 46.7354 208.203 46.9406 208.409C46.7354 208.409 46.7354 208.203 46.5302 208.203C-31.8413 193.432 -7.63226 401.055 92.2812 375.614C92.6915 375.409 93.1018 375.204 93.5121 374.999C105.822 388.129 135.16 390.386 149.726 391.206C188.911 393.463 233.432 370.28 241.844 329.658C242.459 326.375 237.946 324.119 236.304 327.401C219.891 359.406 198.965 377.255 162.241 382.179C143.777 384.641 95.9741 382.385 92.2812 358.175C91.8708 355.508 87.9728 356.329 87.7676 358.791C87.3573 363.099 88.3831 366.793 90.0244 370.075C45.9148 369.664 21.5006 339.095 10.6271 298.063C1.39483 262.981 6.11353 220.512 46.5302 211.69C47.3509 211.485 47.7612 210.665 47.5561 209.844C69.7135 244.516 135.57 238.977 169.217 235.695C196.708 233.027 236.099 226.668 254.769 203.074C255.179 203.485 255.589 203.69 256 203.895C297.647 220.103 309.752 276.933 291.082 315.093C280.003 337.661 250.87 373.564 223.379 364.742C222.558 364.537 221.533 365.357 221.738 366.383C234.663 402.491 291.287 331.095 298.058 319.401C322.882 276.932 303.597 213.742 259.077 196.303ZM118.952 53.5113C125.517 30.3281 129.005 3.04168 161.42 11.4533C178.244 15.7617 183.578 27.8662 189.733 41.4068C180.296 34.021 170.653 28.4816 158.959 24.7887C157.113 24.1733 155.266 25.4042 154.651 27.2507C148.701 47.3565 161.216 66.2313 170.653 83.2596C183.578 106.238 189.323 131.267 195.683 156.502C194.452 156.092 193.221 156.297 191.99 157.323C167.576 179.89 122.44 175.582 98.4367 154.245C98.2315 154.04 98.0263 154.04 97.8212 153.835C103.155 119.983 109.72 86.7474 118.952 53.5113ZM94.9482 174.146C95.5637 169.017 96.3844 163.888 97.205 158.759C122.235 183.173 170.653 187.892 196.709 163.272C196.914 163.272 197.324 163.272 197.529 163.272C198.76 168.196 200.197 173.12 201.633 178.044C183.989 187.071 164.499 191.585 145.008 192.816C135.571 193.431 125.928 192.61 116.901 190.354C107.053 187.892 101.514 180.711 93.5128 175.787C94.1276 175.582 94.9482 175.172 94.9482 174.146ZM230.355 211.896C211.89 222.154 189.938 225.436 169.217 227.898C149.111 230.154 128.8 230.36 108.694 228.719C93.7173 227.488 79.5612 223.385 66.2257 216.409C46.9406 206.151 47.7612 189.534 68.8928 166.556C75.8683 164.709 82.8438 164.299 90.0244 165.325C90.4347 165.325 90.845 165.12 91.0502 164.914C90.845 168.197 90.6399 171.274 90.6399 174.557C90.6399 175.788 91.2553 176.198 92.076 176.403C91.8708 176.609 91.4605 177.019 91.6657 177.429C93.307 196.099 120.183 200.612 134.955 201.638C158.958 203.485 186.04 196.714 206.966 185.02C207.171 184.815 207.171 184.815 207.376 184.61C209.017 184.2 210.248 182.763 209.633 180.712C207.786 174.762 206.145 168.607 204.709 162.247C214.762 159.991 224.404 159.58 235.073 161.016C280.003 166.965 245.126 203.689 230.355 211.896Z" fill="url(#paint0_linear)"/>
<path d="M138.854 269.135C113.414 261.544 88.3839 253.543 63.3543 245.131C61.9182 244.721 60.8924 246.978 62.3285 247.593C85.1014 258.467 109.31 266.263 133.314 273.444C122.851 286.164 104.592 290.267 88.7942 289.036C80.9981 288.42 73.4072 285.548 67.6627 280.214C59.8665 273.033 62.5336 262.981 64.9956 254.159C65.6111 251.902 62.3285 250.466 61.0975 252.518C49.4033 271.393 61.0975 288.831 80.3826 294.576C100.899 300.525 125.928 293.55 136.802 274.675C137.007 274.675 137.212 274.675 137.212 274.88C140.905 275.7 142.546 270.161 138.854 269.135Z" fill="url(#paint1_linear)"/>
<path d="M250.666 231.181C250.461 230.771 250.255 230.566 250.05 230.566C249.64 228.924 247.793 227.488 245.947 228.514C226.867 240.823 204.915 250.877 188.707 267.289C187.681 268.315 187.681 269.751 188.502 270.572C187.476 270.162 186.04 270.572 186.04 272.009C188.502 292.32 214.763 291.909 229.534 286.78C251.076 279.394 259.283 250.877 250.666 231.181ZM230.97 278.573C219.481 285.548 194.657 286.985 189.323 271.598L189.117 271.393C190.143 272.008 191.374 272.008 192.4 271.187C208.608 256.826 229.944 249.851 246.152 235.694C245.126 252.313 248.819 267.699 230.97 278.573Z" fill="url(#paint2_linear)"/>
<path d="M179.269 290.882C174.14 286.984 170.242 281.855 165.113 278.162C162.241 276.11 159.369 280.829 162.241 282.88C165.934 285.547 169.011 288.83 172.294 292.113C166.138 293.959 159.984 295.395 153.419 295.806C155.471 289.446 157.522 283.085 160.6 277.136C161.42 275.289 159.164 274.058 157.933 275.7C153.213 282.675 149.315 290.266 146.444 298.473C145.828 300.319 147.469 302.165 149.316 302.165C159.164 302.165 170.448 301.345 179.064 296.011C181.115 294.37 180.91 292.113 179.269 290.882Z" fill="url(#paint3_linear)"/>
<defs>
<linearGradient id="paint0_linear" x1="154.5" y1="0" x2="154.5" y2="391.357" gradientUnits="userSpaceOnUse">
<stop stop-color="#6A0404"/>
<stop offset="1" stop-color="#D13514"/>
</linearGradient>
<linearGradient id="paint1_linear" x1="98.6813" y1="245.082" x2="98.6813" y2="296.642" gradientUnits="userSpaceOnUse">
<stop stop-color="#6A0404"/>
<stop offset="1" stop-color="#D13514"/>
</linearGradient>
<linearGradient id="paint2_linear" x1="220.039" y1="228.169" x2="220.039" y2="289.747" gradientUnits="userSpaceOnUse">
<stop stop-color="#6A0404"/>
<stop offset="1" stop-color="#D13514"/>
</linearGradient>
<linearGradient id="paint3_linear" x1="163.432" y1="274.932" x2="163.432" y2="302.165" gradientUnits="userSpaceOnUse">
<stop stop-color="#6A0404"/>
<stop offset="1" stop-color="#D13514"/>
</linearGradient>
</defs>
</svg>
