<svg width="412" height="358" viewBox="0 0 412 358" fill="none" xmlns="http://www.w3.org/2000/svg">
<g filter="url(#filter0_d)">
<path d="M164.587 113.312L38.8334 25.4471L101.913 93.9307L26.5535 101.476L149.122 195.406L42.0544 182.491L261.872 323.982L141.326 211.344L231.904 227.042L102.473 121.252L164.587 113.312Z" fill="url(#paint0_linear)"/>
<path d="M164.587 113.312L38.8334 25.4471L101.913 93.9307L26.5535 101.476L149.122 195.406L42.0544 182.491L261.872 323.982L141.326 211.344L231.904 227.042L102.473 121.252L164.587 113.312Z" stroke="black"/>
</g>
<path d="M133.809 231.812L140.664 231.672C145.984 231.742 148.645 231.859 148.645 232.023C148.645 232.094 148.574 232.129 148.434 232.129V232.234H148.504C148.738 232 149.324 231.824 150.262 231.707L150.438 231.672C150.508 231.859 150.543 232.012 150.543 232.129C150.543 233.465 150.613 234.637 150.754 235.645L150.086 237.016C149.805 237.156 149.535 237.227 149.277 237.227C148.527 237.227 148.152 237.004 148.152 236.559V236.488C148.199 236.324 148.316 236.137 148.504 235.926C148.27 235.855 148.152 235.656 148.152 235.328C148.152 234.906 147.977 234.695 147.625 234.695C147.625 234.508 147.602 234.414 147.555 234.414H146.605V234.449C146.605 234.52 146.746 234.59 147.027 234.66V234.801L146.746 234.871L142.422 234.766H140.172C138.648 234.766 137.887 234.859 137.887 235.047C138.004 235.047 138.133 237.25 138.273 241.656C138.438 241.82 138.578 241.902 138.695 241.902H138.941L140.699 241.797L143.547 242.148C143.781 242.148 143.898 241.809 143.898 241.129C143.898 240.824 144.191 240.625 144.777 240.531L145.023 240.355C145.328 240.355 145.48 241.562 145.48 243.977V245.418C145.48 245.629 145.422 245.758 145.305 245.805C145.023 245.664 144.566 245.535 143.934 245.418C143.863 245.418 143.746 245.055 143.582 244.328C143.582 244.094 142.68 243.977 140.875 243.977C139.211 243.977 138.379 244.047 138.379 244.188L138.344 244.75L138.555 248.336C138.508 249.695 138.402 251.09 138.238 252.52L138.379 252.59C139.387 252.52 140.699 252.402 142.316 252.238H142.352C143.57 252.238 145.246 252.367 147.379 252.625H147.449C147.637 252.625 147.742 252.508 147.766 252.273H147.977L148.328 252.59L148.363 252.379C148.363 251.957 148.281 251.746 148.117 251.746L147.871 251.887C147.637 251.723 147.461 251.465 147.344 251.113C147.344 250.855 147.777 250.68 148.645 250.586C148.715 250.586 149.008 250.727 149.523 251.008C149.781 251.008 149.91 251.254 149.91 251.746C149.91 253.387 149.969 254.734 150.086 255.789L149.98 256.141H149.805C149.641 256 149.031 255.895 147.977 255.824C147.977 255.73 143.816 255.602 135.496 255.438C134.98 255.438 134.723 255.227 134.723 254.805C134.629 254.711 134.582 254.289 134.582 253.539L134.723 252.766V252.414L134.828 252.273H134.934C135.145 252.484 135.32 252.59 135.461 252.59H135.566C136.059 252.473 136.305 252.297 136.305 252.062L136.094 244.117C136.094 243.953 135.965 243.648 135.707 243.203C135.777 243.203 135.871 240.965 135.988 236.488C136.059 236.348 136.094 236.113 136.094 235.785V235.645C136.094 235.012 135.719 234.695 134.969 234.695L134.09 234.449L133.633 234.52C133.258 234.52 133.07 233.992 133.07 232.938L133.035 232.902C133.059 232.176 133.305 231.812 133.773 231.812H133.809ZM133.984 232.199H133.844V232.234L134.195 232.762C134.359 232.527 134.5 232.41 134.617 232.41L134.863 232.445L134.969 232.41C134.734 232.27 134.406 232.199 133.984 232.199ZM135.848 232.41C135.684 232.434 135.602 232.48 135.602 232.551C135.602 232.621 135.637 232.656 135.707 232.656L136.023 232.551V232.41H135.848ZM139.012 232.445H138.906V232.516H139.012V232.445ZM136.34 232.586L136.234 232.762V232.797C136.281 232.938 136.41 233.008 136.621 233.008H137.043V232.867C136.738 232.68 136.516 232.586 136.375 232.586H136.34ZM138.062 232.902H137.887V232.938C137.934 233.055 138.039 233.113 138.203 233.113H138.379V233.078C138.332 232.961 138.227 232.902 138.062 232.902ZM147.238 233.008L145.973 233.043V233.113L147.977 233.359C148.047 233.336 148.105 233.266 148.152 233.148V233.043L147.238 233.008ZM139.469 233.078C139.469 233.172 139.68 233.219 140.102 233.219C140.102 233.125 139.891 233.078 139.469 233.078ZM137.816 234.027C137.863 234.215 137.98 234.309 138.168 234.309H138.203C139.117 234.285 139.574 234.191 139.574 234.027C139.574 233.887 139.281 233.816 138.695 233.816H138.59C138.074 233.816 137.816 233.887 137.816 234.027ZM140.734 233.992L140.664 234.027C140.688 234.121 140.77 234.168 140.91 234.168H140.945C141.109 234.168 141.203 234.121 141.227 234.027L141.121 233.992H140.734ZM135.848 234.098H135.039V234.168H135.848V234.098ZM148.645 235.434V235.469L148.75 235.574C148.82 235.574 148.879 235.445 148.926 235.188L148.891 234.941H148.785C148.691 234.941 148.645 235.105 148.645 235.434ZM149.383 236.277L149.453 236.312L149.559 236.418V236.453C149.699 236.453 149.77 236.324 149.77 236.066V235.996H149.629C149.559 236.043 149.477 236.137 149.383 236.277ZM137.254 236.137L137.184 236.277V236.559C137.23 236.746 137.324 236.84 137.465 236.84L137.535 236.664V236.629C137.535 236.371 137.441 236.207 137.254 236.137ZM137.465 237.895L137.254 238.07V238.316L137.395 238.457H137.5L137.57 238.352L137.465 237.895ZM138.59 242.43L138.484 242.57V242.605H138.766V242.535L138.625 242.43H138.59ZM141.051 242.781H140.945V242.887L141.051 242.957H141.121V242.887L141.051 242.781ZM141.543 242.887H141.402V242.957H141.543V242.887ZM142 242.887H141.824L141.965 243.027H142.105V242.957L142 242.887ZM136.938 245.207H136.797L136.727 245.418V245.734H136.832L136.938 245.699V245.207ZM137.711 247.949H137.605V248.055H137.711V247.949ZM137.676 250.41H137.57L137.535 250.621V251.078L137.57 251.113V251.148C137.734 251.148 137.816 251.02 137.816 250.762C137.816 250.551 137.77 250.434 137.676 250.41ZM149.031 251.5L149.137 251.605C149.254 251.559 149.312 251.512 149.312 251.465V251.395L149.242 251.289C149.102 251.336 149.031 251.406 149.031 251.5ZM137.57 253.188H137.465V253.293H137.57V253.188ZM137.711 253.504L137.605 253.609V253.645C137.629 253.738 137.758 253.785 137.992 253.785H138.168L138.379 253.715V253.645C138.355 253.551 138.273 253.504 138.133 253.504H137.711ZM140.383 253.645H140.031V253.715L140.102 253.82H140.242L140.453 253.785V253.715L140.383 253.645ZM147.906 253.645L147.766 253.82V253.855C147.789 253.949 147.871 253.996 148.012 253.996C148.246 253.973 148.363 253.914 148.363 253.82V253.785L148.328 253.645H147.906ZM141.824 253.785H141.016V253.855L141.824 253.961H143.898C143.898 253.844 143.207 253.785 141.824 253.785ZM136.621 253.926L136.234 253.961V254.031C136.281 254.148 136.375 254.207 136.516 254.207H136.867L136.973 254.066V254.031C136.973 253.961 136.891 253.926 136.727 253.926H136.621ZM145.586 253.961H145.234V253.996C145.234 254.113 145.797 254.184 146.922 254.207V254.137C146.5 254.02 146.055 253.961 145.586 253.961ZM135.496 254.559H135.355V254.84L135.461 254.91H135.496V254.559ZM149.102 254.594H148.75V254.734L149.137 254.84H149.242L149.312 254.734V254.664L149.102 254.594ZM145.902 254.945L146.254 255.051H146.57C146.734 255.051 146.828 255.004 146.852 254.91H146.781L146.395 254.84C146.066 254.887 145.902 254.922 145.902 254.945ZM143.195 254.91H142.984V254.945L143.055 255.051H143.582V254.945L143.195 254.91ZM140.418 254.945L140.277 255.086V255.191H140.453L140.523 255.086V255.051L140.453 254.945H140.418ZM151.352 238.281L151.422 238.211C151.961 238.305 152.523 238.352 153.109 238.352H155.992L156.098 238.457C155.957 238.879 155.887 239.207 155.887 239.441V240.039C155.98 240.695 156.168 241.023 156.449 241.023C156.59 240.766 157.059 240.52 157.855 240.285C159.754 239.465 161.301 239.055 162.496 239.055C163.293 239.055 164.148 239.406 165.062 240.109C165.742 240.367 166.398 240.918 167.031 241.762C167.992 243.285 168.473 245.078 168.473 247.141V247.422L168.227 249.953L168.473 251.781L168.121 253.434V253.504V253.785L169.457 253.855H170.055C170.453 253.855 170.688 253.891 170.758 253.961C170.664 255.672 170.488 256.527 170.23 256.527C169.762 256.809 169.258 256.949 168.719 256.949H167.98C166.855 256.949 165.672 257.102 164.43 257.406C163.609 257.289 163.199 256.879 163.199 256.176L163.164 254.91C163.164 254.137 163.363 253.574 163.762 253.223C163.973 252.074 164.219 251.031 164.5 250.094L164.711 246.965C164.781 246.965 164.816 246.707 164.816 246.191C164.816 245.559 164.312 244.656 163.305 243.484C162.531 243.156 162.086 242.992 161.969 242.992C160.609 242.992 159.391 243.566 158.312 244.715C158.219 244.715 157.645 245.289 156.59 246.438C156.262 246.695 156.098 247.48 156.098 248.793C156.145 251.16 156.227 252.344 156.344 252.344C157.281 252.508 157.75 252.684 157.75 252.871V253.012L156.977 252.977L156.414 253.012V253.152C156.414 253.246 156.859 253.363 157.75 253.504C157.914 253.668 157.996 253.938 157.996 254.312V254.383C157.996 254.945 157.879 255.543 157.645 256.176L153.566 256.211C153.168 256.211 152.875 256.012 152.688 255.613C152.594 255.168 152.488 254.301 152.371 253.012C152.371 252.895 152.723 252.766 153.426 252.625L153.602 252.379V252.344C153.602 252.203 153.508 252.004 153.32 251.746V250.656V248.652L153.461 245.418C153.461 243.215 153.367 242.113 153.18 242.113H153.004L151.352 242.324C151.188 242.324 150.965 242.184 150.684 241.902V241.762C150.801 241.574 150.859 241.375 150.859 241.164L150.789 239.863L151.352 238.281ZM154.41 238.914L151.527 239.371V239.441C151.527 239.512 151.703 239.559 152.055 239.582C153.578 239.582 154.34 239.477 154.34 239.266L154.48 239.055V238.984H154.41V238.914ZM161.406 239.582V239.617C161.57 239.617 161.852 239.758 162.25 240.039L162.637 240.145L163.762 240.109L163.797 240.039V240.004C163.773 239.863 163.645 239.793 163.41 239.793H163.27L162.918 239.863C162.402 239.559 162.027 239.406 161.793 239.406C161.582 239.406 161.453 239.465 161.406 239.582ZM159.016 240.215V240.25L159.086 240.355C160.188 240.074 160.738 239.863 160.738 239.723H160.668C160.152 239.723 159.602 239.887 159.016 240.215ZM152.23 240.25L152.336 240.355H152.406C152.711 240.332 152.863 240.262 152.863 240.145L152.688 240.109C152.383 240.109 152.23 240.156 152.23 240.25ZM152.547 240.953V241.023L153.215 240.988H153.32C153.555 240.988 153.695 241.047 153.742 241.164V241.27C153.625 241.387 153.566 241.504 153.566 241.621C153.684 241.715 153.824 241.762 153.988 241.762C154.059 241.762 154.094 241.715 154.094 241.621L154.129 240.461L154.094 240.355H153.988C153.848 240.449 153.379 240.637 152.582 240.918L152.547 240.953ZM158.383 240.566L158.418 240.602V240.637C158.629 240.566 158.734 240.508 158.734 240.461V240.391H158.664C158.477 240.438 158.383 240.496 158.383 240.566ZM151.281 240.602V240.637C151.281 240.707 151.34 240.766 151.457 240.812C151.645 240.812 151.855 240.707 152.09 240.496V240.461H151.527C151.363 240.484 151.281 240.531 151.281 240.602ZM163.41 241.164C163.41 241.258 163.621 241.328 164.043 241.375C164.137 241.305 164.184 241.211 164.184 241.094C164.184 240.977 163.996 240.883 163.621 240.812C163.48 240.906 163.41 241.023 163.41 241.164ZM156.309 241.445V241.586C156.637 241.586 156.988 241.375 157.363 240.953V240.918L157.328 240.883H157.293C157.012 240.883 156.684 241.07 156.309 241.445ZM164.746 240.953L164.641 241.094C164.688 241.211 164.781 241.27 164.922 241.27H165.098L165.273 241.129V241.094C165.25 241 165.133 240.953 164.922 240.953H164.746ZM160.844 241.305V241.375H161.02C161.371 241.328 161.547 241.258 161.547 241.164V241.094H161.301C160.996 241.117 160.844 241.188 160.844 241.305ZM155.078 241.129H154.902L154.832 241.34V241.973C154.832 242.254 154.785 242.441 154.691 242.535V242.711L154.832 243.203V243.484C154.832 243.672 154.891 243.801 155.008 243.871C155.031 243.871 155.102 243.602 155.219 243.062C155.547 242.805 155.711 242.605 155.711 242.465C155.711 242.348 155.582 242.09 155.324 241.691C155.254 241.316 155.172 241.129 155.078 241.129ZM151.562 241.691V241.762H151.914L152.055 241.621V241.586L151.879 241.516C151.668 241.586 151.562 241.645 151.562 241.691ZM164.148 241.797L163.938 241.691L163.867 241.762V241.797L164.043 241.902H164.078L164.148 241.797ZM161.441 242.043L161.512 242.113H161.547C162.062 242.113 162.32 242.066 162.32 241.973L162.039 241.902C161.641 241.949 161.441 241.996 161.441 242.043ZM156.344 243.414V243.52C156.953 243.449 157.797 242.945 158.875 242.008V241.973H158.664C158.57 241.973 158.289 242.137 157.82 242.465C156.836 242.77 156.344 243.086 156.344 243.414ZM164.746 242.043H164.711V242.148C164.711 242.219 164.863 242.547 165.168 243.133C165.168 243.32 165.215 243.414 165.309 243.414L165.449 243.273V243.133C165.449 242.758 165.215 242.395 164.746 242.043ZM153.812 242.465L153.883 242.57H153.953L154.059 242.113H153.953C153.883 242.113 153.836 242.23 153.812 242.465ZM162.672 242.711V242.816H163.551L163.691 242.711V242.57L163.516 242.465H163.34C162.895 242.535 162.672 242.617 162.672 242.711ZM159.191 243.273C159.707 243.18 159.965 243.051 159.965 242.887L159.859 242.816H159.754C159.402 242.816 159.215 242.969 159.191 243.273ZM158.066 243.695V243.766H158.172C158.547 243.461 158.734 243.203 158.734 242.992H158.664V242.922C158.477 242.922 158.277 243.18 158.066 243.695ZM155.359 243.344L155.43 243.555C155.43 243.742 155.324 243.93 155.113 244.117C155.23 244.234 155.289 244.352 155.289 244.469C155.289 245.641 155.371 246.227 155.535 246.227H155.57C155.758 245.805 155.852 245.254 155.852 244.574C155.828 243.707 155.723 243.25 155.535 243.203H155.465C155.395 243.203 155.359 243.25 155.359 243.344ZM165.273 243.801V243.906C165.555 244.961 165.73 245.512 165.801 245.559L165.871 245.312V244.996C165.707 244.199 165.508 243.801 165.273 243.801ZM166.855 243.871H166.82C166.867 245.113 166.984 245.734 167.172 245.734H167.242C167.125 244.492 166.996 243.871 166.855 243.871ZM157.645 243.941L157.434 244.223V244.293L157.469 244.363H157.645L157.75 243.941H157.645ZM156.66 244.293L156.59 244.363L156.66 244.469H156.801V244.363L156.73 244.293H156.66ZM166.609 248.441V248.477L166.715 248.898H166.891C166.867 248.594 166.773 248.441 166.609 248.441ZM165.273 250.973L165.309 251.008H165.344C165.414 251.008 165.449 250.891 165.449 250.656V250.234C165.355 250.234 165.297 250.48 165.273 250.973ZM165.062 251.535C165.203 251.699 165.273 251.922 165.273 252.203H165.344L165.449 251.781V251.184C165.191 251.184 165.062 251.301 165.062 251.535ZM166.609 251.219H166.539V251.395H166.609V251.219ZM167.418 251.395L167.348 252.098V252.977H167.383C167.688 252.602 167.84 252.25 167.84 251.922V251.887C167.84 251.559 167.699 251.395 167.418 251.395ZM166.504 253.012V253.082H166.539L166.68 252.695V252.625H166.609C166.539 252.625 166.504 252.754 166.504 253.012ZM152.934 253.152L152.863 253.293V253.328C152.91 253.75 153.062 253.961 153.32 253.961H153.531L153.637 253.855V253.785C153.426 253.527 153.32 253.316 153.32 253.152H152.934ZM166.609 253.645H166.469V253.785L166.609 253.926L166.715 253.855V253.785L166.609 253.645ZM168.508 254.453V254.559C169.562 254.559 170.09 254.477 170.09 254.312V254.242H169.598C168.871 254.266 168.508 254.336 168.508 254.453ZM154.41 254.805C154.41 254.922 154.715 254.98 155.324 254.98C156.496 254.98 157.082 254.922 157.082 254.805C157.082 254.664 156.684 254.594 155.887 254.594C154.996 254.594 154.504 254.664 154.41 254.805ZM163.938 254.91H163.832V255.121L163.938 255.227H164.043L164.078 255.121V255.086L163.938 254.91ZM168.824 255.191V255.297C168.871 255.414 168.977 255.473 169.141 255.473C169.516 255.473 169.738 255.391 169.809 255.227V255.121C169.762 254.98 169.633 254.91 169.422 254.91H169.246C169.012 254.91 168.871 255.004 168.824 255.191ZM164.711 255.824C164.781 256.012 164.898 256.105 165.062 256.105C166.328 256.082 166.961 256 166.961 255.859C166.797 255.648 166.504 255.543 166.082 255.543C165.168 255.566 164.711 255.66 164.711 255.824ZM163.832 256.492L163.691 256.633V256.703C163.691 256.867 164.008 256.949 164.641 256.949H164.816L165.098 256.879V256.844C164.863 256.609 164.488 256.492 163.973 256.492H163.832ZM179.441 227.734C179.957 227.734 180.379 227.875 180.707 228.156C180.426 228.906 180.238 230.09 180.145 231.707L179.828 234.941C179.828 235.105 180.297 235.188 181.234 235.188C184 235.188 185.383 235.316 185.383 235.574C185.5 235.574 185.641 235.645 185.805 235.785C185.57 236.09 185.453 236.312 185.453 236.453V236.559L185.559 237.262L185.102 238.809C185.102 238.973 185.277 239.207 185.629 239.512V239.582C185.066 239.77 184.609 239.863 184.258 239.863C183.883 239.84 183.695 239.781 183.695 239.688V239.617L184.012 239.582H184.258L184.398 239.441V239.371L184.258 239.336L181.902 239.371L179.969 239.336C179.852 239.336 179.723 239.992 179.582 241.305H179.547L179.055 240.742L178.949 241.129V241.34C178.973 241.996 179.055 242.348 179.195 242.395C179.289 242.395 179.371 242.184 179.441 241.762V241.516H179.547L179.582 241.621L179.336 244.996C179.617 249.848 179.863 252.273 180.074 252.273C180.191 253.023 180.484 253.398 180.953 253.398C181.211 253.562 181.527 253.645 181.902 253.645H182.535L184.645 253.539C184.691 253.539 184.773 254.16 184.891 255.402C184.938 255.777 184.855 256.047 184.645 256.211C184.457 256.398 184.129 256.492 183.66 256.492L180.953 256.562C179.477 256.562 178.234 256.152 177.227 255.332C176.57 255.098 176.242 254.395 176.242 253.223C176.195 252.59 176.113 250.715 175.996 247.598L176.418 242.816L176.523 240.742V240.461C176.359 239.477 176.078 238.984 175.68 238.984H174.625H173.395C173.043 238.984 172.691 239.066 172.34 239.23C172.105 239.207 171.812 238.891 171.461 238.281L172.164 235.152C172.164 235.059 173.582 235 176.418 234.977C176.418 234.672 176.582 234.285 176.91 233.816C177.004 230.16 177.133 228.332 177.297 228.332V228.227C177.297 228.18 177.238 228.156 177.121 228.156V228.051C177.121 227.98 177.895 227.875 179.441 227.734ZM178.105 228.684H178.07V228.895H178.176V228.754L178.105 228.684ZM179.617 228.754L179.477 228.895V228.965L179.582 229.773H179.652C179.934 229.492 180.074 229.246 180.074 229.035V228.895L179.969 228.754H179.617ZM178.352 230.055L178.246 229.949C178.199 230.184 178.176 230.488 178.176 230.863V231.004H178.246L178.352 230.406V230.055ZM178.457 231.531H178.387L178.246 235.012V235.047L178.352 235.152H178.422C178.586 235.152 178.668 234.859 178.668 234.273V233.465L178.598 231.742C178.551 231.602 178.504 231.531 178.457 231.531ZM172.375 235.574C172.375 235.738 172.48 235.82 172.691 235.82H173.219C174.18 235.82 175.07 235.773 175.891 235.68V235.609C175.891 235.492 175.316 235.434 174.168 235.434H172.691C172.48 235.434 172.375 235.48 172.375 235.574ZM183.344 235.434L182.887 235.609H182.465H181.867V235.715C182.383 235.855 182.828 235.926 183.203 235.926H184.012C184.059 235.926 184.082 235.891 184.082 235.82C184.035 235.562 183.906 235.434 183.695 235.434H183.344ZM184.328 235.785L184.223 235.855V235.926L184.328 235.961C184.562 235.961 184.691 235.914 184.715 235.82V235.785H184.328ZM172.938 236.242L172.867 236.312V236.523C172.867 236.758 173.652 236.875 175.223 236.875C176.02 236.875 176.418 236.816 176.418 236.699C176.418 236.418 175.387 236.266 173.324 236.242H172.938ZM180.426 236.559L180.32 236.664V236.699C180.32 236.816 180.742 236.887 181.586 236.91L182.184 236.875L182.992 237.016H183.133C183.297 237.016 183.379 236.945 183.379 236.805H183.344L180.672 236.559H180.426ZM184.223 237.332L184.082 237.473V237.508L184.223 237.613H184.398C184.609 237.613 184.738 237.543 184.785 237.402L184.68 237.332H184.223ZM173.254 237.473L173.113 237.578C173.113 237.672 173.172 237.719 173.289 237.719L174.168 237.754L175.117 237.719L175.152 237.684V237.613C174.871 237.52 174.344 237.473 173.57 237.473H173.254ZM175.996 238.141L173.113 238.035V238.105C173.113 238.27 174.004 238.352 175.785 238.352L176.066 238.281V238.246L175.996 238.141ZM181.023 238.246H180.848V238.352C180.871 238.398 181.281 238.516 182.078 238.703H182.148V238.633C181.773 238.375 181.398 238.246 181.023 238.246ZM182.816 238.598C183.449 238.809 184.012 238.914 184.504 238.914L184.645 238.773V238.562L184.539 238.457H183.766C183.133 238.457 182.816 238.504 182.816 238.598ZM177.93 239.863V240.145L178.035 240.25C178.129 240.227 178.176 240.145 178.176 240.004V239.863L178.105 239.617H178.07C177.977 239.641 177.93 239.723 177.93 239.863ZM179.23 240.496L179.055 240.355V240.461L179.195 240.602H179.23V240.496ZM178.105 240.566H178.035L178 240.742V240.918L178.035 241.129H178.176V240.812V240.637L178.105 240.566ZM178.176 242.992H178.07V243.273L178.176 243.414H178.246V243.273L178.176 242.992ZM176.488 247.457L176.594 248.441L176.559 249.672L176.594 250.023H176.699C176.84 250.023 176.91 249.473 176.91 248.371V247.562C176.91 246.484 176.863 245.945 176.77 245.945C176.605 245.945 176.512 246.449 176.488 247.457ZM178.773 250.234H178.703L178.668 250.48V250.762C178.668 250.926 178.715 251.02 178.809 251.043H178.879C178.973 251.02 179.02 250.938 179.02 250.797C178.996 250.422 178.914 250.234 178.773 250.234ZM179.055 251.746L178.914 252.133C178.914 252.672 179.031 253.012 179.266 253.152L179.336 253.012V252.695C179.312 252.109 179.219 251.793 179.055 251.746ZM177.684 251.992H177.578V252.52L177.648 252.73H177.684L177.754 252.66V252.062L177.684 251.992ZM178.703 254.207V254.242V254.453C178.727 254.547 178.809 254.641 178.949 254.734H179.195V254.664C179.195 254.406 179.031 254.254 178.703 254.207ZM182.605 254.91H182.746C183.613 254.77 184.047 254.617 184.047 254.453L183.977 254.383C183.062 254.617 182.605 254.793 182.605 254.91ZM177.824 254.418H177.754V254.559C177.824 255.145 178.082 255.438 178.527 255.438H178.879L178.949 255.332V255.297C178.949 255.25 178.738 255.168 178.316 255.051L177.824 254.418ZM195.965 238.352C196.949 238.352 198.145 238.773 199.551 239.617C200.746 240.508 201.344 241.117 201.344 241.445C202.281 243.414 202.75 244.598 202.75 244.996L202.785 245.277C202.434 246.098 202.258 246.66 202.258 246.965L202.047 247H199.059C198.777 247 198.438 247.035 198.039 247.105C194.664 246.824 192.297 246.684 190.938 246.684H190.199C189.918 247.105 189.777 247.41 189.777 247.598C189.941 247.855 190.023 248.266 190.023 248.828C190.023 249.719 190.164 250.246 190.445 250.41L190.48 250.586V250.621L190.27 250.516V250.621L190.586 250.973C190.586 251.277 190.797 251.664 191.219 252.133C191.992 253.492 192.836 254.336 193.75 254.664C194.523 254.922 195.402 255.051 196.387 255.051C196.551 255.051 196.891 254.898 197.406 254.594C197.828 254.5 198.719 253.738 200.078 252.309V252.203C200.078 252.156 199.914 252.109 199.586 252.062L199.516 251.887C200.055 250.855 200.699 250.176 201.449 249.848C201.66 250.059 202.094 250.387 202.75 250.832C203.266 251.629 203.957 252.566 204.824 253.645V253.785C204.074 254.77 203.535 255.262 203.207 255.262H203.066C203.066 254.746 202.75 254.453 202.117 254.383C202 254.383 201.484 254.77 200.57 255.543C200.031 255.965 199.105 256.363 197.793 256.738C196.27 257.043 195.191 257.195 194.559 257.195L192.555 256.492C191.43 256.492 190.398 255.883 189.461 254.664C189.062 254.242 188.734 253.738 188.477 253.152C188.477 252.965 188.219 251.992 187.703 250.234C187.539 249.555 187.457 248.898 187.457 248.266V248.23C187.457 245.113 188.395 242.383 190.27 240.039C190.504 239.453 191.043 239.02 191.887 238.738C192.449 238.574 193.129 238.445 193.926 238.352C194.137 238.258 194.816 238.258 195.965 238.352ZM192.73 239.09V239.125H192.801C193.176 239.125 193.879 238.996 194.91 238.738C195.121 238.715 195.227 238.656 195.227 238.562L195.121 238.457H195.086C194.406 238.457 193.645 238.645 192.801 239.02L192.73 239.09ZM191.324 239.688V239.723L191.43 239.793H191.465C191.934 239.676 192.168 239.559 192.168 239.441V239.23L192.027 239.09H191.957C191.535 239.23 191.324 239.43 191.324 239.688ZM196.738 239.336H195.684V239.406C195.684 239.5 196.164 239.57 197.125 239.617H197.16V239.477C197.16 239.43 197.02 239.383 196.738 239.336ZM194.242 239.863V239.898C194.242 239.992 194.723 240.109 195.684 240.25L195.754 240.215V240.074C195.566 239.816 195.25 239.688 194.805 239.688H194.699C194.395 239.711 194.242 239.77 194.242 239.863ZM196.387 240.074V240.109C197.723 240.883 198.438 241.27 198.531 241.27H198.566L198.918 241.129L199.129 241.199L199.164 241.129V241.094C199.07 241.023 198.871 240.953 198.566 240.883L197.863 240.566C197.676 240.168 197.301 239.969 196.738 239.969H196.633C196.469 239.992 196.387 240.027 196.387 240.074ZM192.203 241.094C192.438 240.906 192.906 240.707 193.609 240.496V240.426L193.574 240.355H193.223C192.543 240.543 192.203 240.789 192.203 241.094ZM190.34 243.414V243.52C190.34 243.777 192.473 244.07 196.738 244.398L197.09 244.504L197.547 244.469C198.484 244.773 199.117 244.926 199.445 244.926C199.445 244.996 199.516 245.055 199.656 245.102C199.797 244.891 199.867 244.691 199.867 244.504V243.836C199.867 243.531 199.281 242.852 198.109 241.797C197.57 241.258 196.961 240.953 196.281 240.883L195.086 240.672C193.141 241.07 191.863 241.551 191.254 242.113C190.996 242.605 190.691 243.039 190.34 243.414ZM190.727 241.305V241.375H190.797C191.102 241.305 191.254 241.223 191.254 241.129V241.094H191.078C190.961 241.094 190.844 241.164 190.727 241.305ZM199.129 241.797C199.176 241.984 199.281 242.078 199.445 242.078H199.516L199.586 241.973V241.762L199.445 241.586C199.234 241.586 199.129 241.656 199.129 241.797ZM190.059 241.973L189.988 242.078V242.113H190.059L190.199 242.008V241.973H190.059ZM200.008 242.254H199.867C200.125 243.027 200.312 243.449 200.43 243.52H200.57L200.676 243.449C200.488 242.699 200.289 242.324 200.078 242.324L200.008 242.254ZM190.375 242.887C190.516 242.863 190.586 242.77 190.586 242.605V242.57C190.445 242.617 190.375 242.723 190.375 242.887ZM201.203 243.836L201.098 243.906V244.152L201.203 244.293C201.297 244.27 201.344 244.188 201.344 244.047V243.906L201.309 243.836H201.203ZM189.988 244.328V244.469L190.059 244.539H190.129C190.293 244.469 190.434 244.34 190.551 244.152V244.047H190.375C190.234 244.047 190.105 244.141 189.988 244.328ZM188.547 244.117C188.359 244.305 188.195 244.773 188.055 245.523H188.125C188.266 245.523 188.477 245.113 188.758 244.293C188.711 244.176 188.641 244.117 188.547 244.117ZM192.133 244.539V244.645C192.578 244.949 193.387 245.102 194.559 245.102H194.875L195.332 245.066V244.926C194.371 244.715 193.305 244.586 192.133 244.539ZM198.566 245.453H198.461V245.559H198.566V245.453ZM191.781 245.734V245.805C192.25 245.922 193.492 246.039 195.508 246.156V246.191V246.227L194.77 246.332C194.77 246.402 195.074 246.438 195.684 246.438C196.668 246.438 197.16 246.391 197.16 246.297C197.16 246.062 195.367 245.875 191.781 245.734ZM188.23 245.98H188.055V246.191C188.055 246.332 188.09 246.402 188.16 246.402C188.277 246.402 188.348 246.285 188.371 246.051L188.23 245.98ZM191.078 246.051L190.902 246.086V246.297H191.078V246.156V246.086V246.051ZM189.953 246.332V246.367H189.988L190.586 246.297V246.227L190.48 246.086H190.375C190.164 246.086 190.023 246.168 189.953 246.332ZM198.496 246.402C198.496 246.496 198.707 246.543 199.129 246.543L199.445 246.508V246.438C199.445 246.344 199.223 246.297 198.777 246.297C198.59 246.344 198.496 246.379 198.496 246.402ZM188.055 247.316V247.422V247.457C188.031 247.527 188.02 247.691 188.02 247.949V248.09C188.02 248.512 188.137 248.887 188.371 249.215H188.406C188.406 248.09 188.289 247.457 188.055 247.316ZM188.688 250.375H188.582V250.445L188.688 250.516H188.758V250.445L188.688 250.375ZM188.934 250.973L188.898 251.008V251.078C188.992 251.453 189.133 251.641 189.32 251.641V251.605V251.535C189.32 251.348 189.191 251.16 188.934 250.973ZM200.395 251.289L200.465 251.395H200.641C200.781 251.395 200.863 251.348 200.887 251.254L200.746 251.113H200.711C200.547 251.113 200.441 251.172 200.395 251.289ZM199.586 253.328L199.656 253.363H199.691C199.949 253.363 200.113 253.211 200.184 252.906V252.836C199.926 252.836 199.727 253 199.586 253.328ZM202.047 253.258L202.082 253.293H202.188C202.328 253.199 202.398 253.07 202.398 252.906H202.293C202.129 253 202.047 253.117 202.047 253.258ZM203.277 252.906H203.242V252.977C203.312 253.258 203.418 253.398 203.559 253.398H203.594L203.664 253.328V253.293C203.617 253.035 203.488 252.906 203.277 252.906ZM201.238 253.645L201.344 253.715C201.695 253.598 201.871 253.445 201.871 253.258V253.188H201.836C201.508 253.188 201.309 253.34 201.238 253.645ZM198.496 254.418H198.566C198.754 254.348 198.859 254.23 198.883 254.066L198.848 254.031C198.613 254.172 198.496 254.301 198.496 254.418ZM200.57 254.594H200.711C200.945 254.383 201.062 254.23 201.062 254.137H201.027C200.723 254.23 200.57 254.383 200.57 254.594ZM190.586 254.91H190.48V255.051C190.527 255.168 190.727 255.297 191.078 255.438L191.219 255.543C190.961 255.145 190.75 254.934 190.586 254.91ZM193.047 255.051H193.012V255.086C193.012 255.18 193.258 255.285 193.75 255.402L193.785 255.367V255.297C193.48 255.133 193.234 255.051 193.047 255.051ZM195.121 255.438H195.016V255.543H195.121V255.438ZM198.777 255.965C199.012 255.965 199.199 255.789 199.34 255.438H199.234C198.93 255.602 198.777 255.777 198.777 255.965ZM196.316 256.316L195.578 256.246H195.438C195.227 256.246 195.109 256.293 195.086 256.387V256.457L195.227 256.562H195.859C196.586 256.562 197.441 256.434 198.426 256.176C198.379 256.035 198.238 255.965 198.004 255.965H197.828C197.266 255.965 196.762 256.082 196.316 256.316ZM218.781 239.617C219.695 239.617 220.469 240.262 221.102 241.551C221.219 241.551 221.383 241.703 221.594 242.008L222.051 244.609C221.887 244.891 221.266 245.031 220.188 245.031H219.836C218.969 244.891 218.535 244.598 218.535 244.152C218.535 243.824 218.266 243.367 217.727 242.781C217.656 242.664 217.152 242.605 216.215 242.605C215.324 242.605 214.246 242.84 212.98 243.309C212.09 244.246 211.504 244.973 211.223 245.488C211.387 249.496 211.445 252.004 211.398 253.012C211.398 253.223 211.539 253.328 211.82 253.328H212.664C213.039 253.352 213.227 253.422 213.227 253.539V253.574L213.367 254.031L213.297 256L213.086 256.281L211.434 256.457H211.293L210.59 256.668C207.895 256.574 206.547 256.469 206.547 256.352C206.078 256.352 205.844 256.141 205.844 255.719C205.797 255.297 205.773 254.863 205.773 254.418C205.773 253.973 206.23 253.68 207.145 253.539C207.145 253.352 207.461 253.258 208.094 253.258L208.199 253.223V253.152L207.988 243.52C207.988 242.934 207.836 242.641 207.531 242.641H207.32C207.039 242.641 206.57 242.77 205.914 243.027L205.844 242.957V242.887C205.844 242.84 205.938 242.781 206.125 242.711V242.641C205.891 242.641 205.773 241.984 205.773 240.672C205.727 240.672 205.691 240.461 205.668 240.039C206.605 239.312 207.59 238.949 208.621 238.949H209.5C209.852 238.949 210.449 239.066 211.293 239.301V239.406C211.082 239.734 210.977 239.969 210.977 240.109V240.355C212.875 239.512 215.477 239.266 218.781 239.617ZM209.57 244.926V245.102C209.688 245.336 209.746 245.582 209.746 245.84C209.723 245.934 209.688 246.414 209.641 247.281L209.711 248.688H209.746C209.816 248.688 209.91 247.598 210.027 245.418C210.074 245.418 210.098 245.184 210.098 244.715C210.074 244.504 210.016 244.398 209.922 244.398H209.852C209.664 244.516 209.57 244.691 209.57 244.926ZM207.461 255.543L207.004 255.578V255.648C207.004 255.766 207.344 255.824 208.023 255.824H209.078L209.324 255.789C209.324 255.672 208.703 255.59 207.461 255.543ZM213.543 241.129V241.199C213.754 241.199 214.035 240.859 214.387 240.18V240.004H214.352C213.742 240.191 213.473 240.566 213.543 241.129ZM218.078 242.254H218.254C218.371 242.23 218.594 241.949 218.922 241.41V241.375C218.922 241.328 218.875 241.305 218.781 241.305C218.383 241.492 218.184 241.738 218.184 242.043C218.16 242.043 218.125 242.113 218.078 242.254ZM209.992 243.062H209.852L209.676 243.801C209.676 243.918 209.746 244.035 209.887 244.152H209.922C209.992 244.152 210.051 243.988 210.098 243.66L209.992 243.062ZM214.879 240.355L215.055 241.059H215.336V240.32L215.23 240.215H215.125C214.961 240.238 214.879 240.285 214.879 240.355ZM207.215 254.98L207.145 255.051L207.18 255.121H209.113V255.016L207.918 254.98H207.215ZM206.582 240.32C206.77 240.508 206.969 240.602 207.18 240.602L207.215 240.531V240.285L207.074 240.109C206.746 240.156 206.582 240.227 206.582 240.32ZM210.133 255.227L210.238 255.332H210.766L210.906 255.191C210.906 255.145 210.848 255.098 210.73 255.051C210.332 255.098 210.133 255.156 210.133 255.227ZM220.258 241.27H220.152V241.34C220.34 241.527 220.504 241.621 220.645 241.621H220.75V241.551C220.562 241.363 220.398 241.27 220.258 241.27ZM208.199 239.617H208.094V239.758L208.305 240.004H208.621V239.934L208.199 239.617ZM207.145 241.691V241.762H207.25C207.508 241.762 207.648 241.715 207.672 241.621L207.602 241.516H207.531C207.32 241.516 207.191 241.574 207.145 241.691ZM216.145 240.039L215.723 240.074V240.109L215.793 240.215H216.145C216.309 240.215 216.402 240.168 216.426 240.074L216.355 240.039H216.145ZM210.59 251.359L210.449 251.465V251.746H210.59L210.73 251.641V251.43L210.66 251.359H210.59ZM206.371 255.191L206.23 255.051L206.16 255.191V255.332L206.23 255.438H206.371V255.191ZM211.293 241.902L211.152 241.938V242.043L211.293 242.148H211.398L211.504 242.043V241.938L211.293 241.902ZM216.848 240.004V240.074H217.094L217.234 239.969L217.129 239.863C216.941 239.91 216.848 239.957 216.848 240.004ZM219.168 240.004L219.098 240.074V240.109L219.168 240.215H219.309L219.379 240.109V240.074L219.309 240.004H219.168ZM210.625 239.652L210.449 239.723V239.863H210.625L210.73 239.723L210.625 239.652ZM210.52 240.285L210.379 240.391V240.461L210.449 240.531L210.625 240.391V240.285H210.52ZM219.062 243.203V243.273H219.133L219.273 243.168V243.062H219.238C219.121 243.133 219.062 243.18 219.062 243.203ZM217.867 240.109L217.727 240.215V240.25H217.902L217.973 240.18V240.109H217.867ZM210.59 252.133H210.52V252.273H210.59V252.133ZM239.207 231.18L240.402 231.004C241.223 231.004 241.867 231.426 242.336 232.27L242.582 233.395C242.535 233.84 242.277 234.426 241.809 235.152C241.504 235.457 241.035 235.609 240.402 235.609C238.926 235.609 238.012 235.387 237.66 234.941C237.309 234.473 237.145 233.816 237.168 232.973C237.074 232.973 237.027 232.949 237.027 232.902V232.832C237.73 231.73 238.457 231.18 239.207 231.18ZM238.504 232.059V232.094C239.301 232 239.699 231.895 239.699 231.777L239.523 231.707C238.844 231.824 238.504 231.941 238.504 232.059ZM239.102 233.078H239.137L239.348 233.113H239.418C239.676 233.113 239.84 233.02 239.91 232.832L239.875 232.762H239.453C239.266 232.762 239.148 232.867 239.102 233.078ZM241.633 232.762L241.527 232.938V233.078H241.562L241.668 232.938V232.762H241.633ZM240.789 233.922V234.027H240.93C241.094 234.027 241.223 233.945 241.316 233.781V233.676H241.246C241.082 233.676 240.93 233.758 240.789 233.922ZM240.016 234.555L239.91 234.66V234.73H240.543L240.648 234.66L240.543 234.555H240.016ZM235.551 237.895H235.656C235.844 238.059 236.078 238.141 236.359 238.141L236.816 237.93C240.004 237.93 241.598 238.023 241.598 238.211L241.633 238.457V239.055C241.844 239.523 241.949 239.969 241.949 240.391V240.953C241.668 244.773 241.48 247.867 241.387 250.234C241.34 250.375 241.293 250.621 241.246 250.973C241.27 251.066 241.375 251.113 241.562 251.113H241.668C242.934 251.113 243.566 251.266 243.566 251.57L243.531 251.641V251.852C243.812 252.414 243.953 253.305 243.953 254.523L244.094 255.93L243.988 256L242.441 256.07H238.926C236.301 256.07 234.988 255.859 234.988 255.438C234.988 255.18 234.918 254.922 234.777 254.664C234.848 254.5 234.965 254.371 235.129 254.277H235.234C235.328 254.371 235.434 254.418 235.551 254.418H235.621C236.301 254.418 237.109 254.359 238.047 254.242V254.172C236.031 254.031 235.023 253.867 235.023 253.68L234.988 253.398V253.012L234.918 252.098C234.918 251.863 235.797 251.746 237.555 251.746C237.789 251.746 237.906 251.219 237.906 250.164L238.328 240.918H238.258C237.602 240.918 237.273 240.871 237.273 240.777C237.273 240.754 237.309 240.719 237.379 240.672C235.973 240.672 235.27 240.508 235.27 240.18C235.176 240.156 235.129 240.062 235.129 239.898L235.305 239.477C235.305 239.383 235.234 239.254 235.094 239.09C235.281 238.902 235.41 238.527 235.48 237.965L235.551 237.895ZM236.113 238.598V238.738H236.289C236.898 238.738 237.203 238.691 237.203 238.598L237.133 238.457H237.027C236.418 238.457 236.113 238.504 236.113 238.598ZM240.895 238.352L240.789 238.457L240.93 238.562H241V238.457L240.895 238.352ZM236.887 239.09H236.254V239.195C236.254 239.289 236.418 239.336 236.746 239.336H237.133H237.238H238.398C238.75 239.336 238.926 239.277 238.926 239.16V239.125C238.926 239.008 238.246 238.996 236.887 239.09ZM240.016 239.125L239.699 239.09V239.16C239.863 239.16 240.062 239.277 240.297 239.512H240.367C240.414 239.512 240.438 239.477 240.438 239.406H240.508C240.602 239.406 240.66 239.512 240.684 239.723H240.754L241.246 239.371V239.16L240.508 239.125H240.016ZM239.875 241.094L240.051 241.621L239.805 242.254C239.898 242.465 239.98 242.57 240.051 242.57H240.086L240.156 242.359V242.148C240.156 241.305 240.285 240.883 240.543 240.883L240.648 240.742V240.602L240.543 240.496H240.332C240.027 240.496 239.875 240.695 239.875 241.094ZM238.785 244.434L238.68 248.969C238.703 249.133 238.738 249.215 238.785 249.215C238.855 249.215 238.902 249.109 238.926 248.898L238.891 248.371C239.008 248.254 239.137 247.785 239.277 246.965V246.754L239.207 246.262C239.348 246.145 239.418 246.062 239.418 246.016C239.324 245.758 239.277 245.5 239.277 245.242V245.172C239.371 245.172 239.488 243.859 239.629 241.234C239.559 241.047 239.488 240.953 239.418 240.953C239.066 240.953 238.855 242.113 238.785 244.434ZM240.508 241.34L240.367 241.375V241.586C240.367 241.727 240.426 241.832 240.543 241.902H240.648L240.754 241.762V241.586C240.707 241.469 240.625 241.387 240.508 241.34ZM240.332 247.07H240.156C239.969 247.938 239.875 248.582 239.875 249.004H239.91C240.027 249.004 240.18 248.523 240.367 247.562V247.316L240.332 247.07ZM239.664 250.375V250.621H239.734C239.852 250.574 239.91 250.434 239.91 250.199V249.953H239.805C239.758 249.953 239.711 250.094 239.664 250.375ZM239.734 250.902L239.629 251.043V251.219H239.734L239.875 251.113V251.008L239.77 250.902H239.734ZM242.547 251.746L242.441 251.781C242.582 251.898 242.84 251.969 243.215 251.992V251.887C243.215 251.793 243.062 251.746 242.758 251.746H242.547ZM242.688 253.223L242.266 253.328C242.312 253.609 242.523 253.75 242.898 253.75H243.004V253.645L242.934 253.539C242.934 253.516 243.027 253.445 243.215 253.328V253.152C243.215 252.988 243.168 252.895 243.074 252.871H242.934C242.863 252.895 242.781 253.012 242.688 253.223ZM235.973 252.906L235.727 252.977V253.012C235.914 253.199 236.641 253.305 237.906 253.328H238.152C238.34 253.328 238.457 253.27 238.504 253.152V253.082C237.52 252.965 236.676 252.906 235.973 252.906ZM239.277 253.328L239.418 253.504C239.629 253.504 239.734 253.387 239.734 253.152H239.559C239.418 253.152 239.324 253.211 239.277 253.328ZM242.582 254.031L242.477 254.172V254.242H242.547L242.652 254.102V254.031H242.582ZM239.875 254.242L239.418 254.277H238.926V254.418L239.418 254.453L240.438 254.383V254.277H240.297L239.875 254.242ZM243.461 255.438L243.32 255.543V255.648H243.531L243.566 255.543L243.531 255.438H243.461ZM254.5 232.164L254.641 232.129C255.297 232.176 256.41 232.48 257.98 233.043C258.121 233.184 258.273 233.254 258.438 233.254L258.648 233.148L260.301 235.293C260.676 235.832 260.863 236.254 260.863 236.559C261.098 237.238 261.215 237.906 261.215 238.562C261.215 239.172 260.793 239.477 259.949 239.477C259.738 239.477 259.352 239.383 258.789 239.195C258.742 239.195 258.66 239.324 258.543 239.582H258.438C258.32 239.582 258.145 239.125 257.91 238.211C257.23 236.289 256.855 235.316 256.785 235.293C256.457 235.105 255.777 235.012 254.746 235.012H254.641L251.969 235.68C251.312 236.125 250.984 236.418 250.984 236.559C250.984 239.746 251.102 241.34 251.336 241.34C251.875 241.715 252.906 241.902 254.43 241.902C254.711 241.973 254.852 242.09 254.852 242.254C255.297 242.629 255.52 243.027 255.52 243.449C255.52 244.434 254.805 244.926 253.375 244.926H253.305C252.953 244.926 252.555 244.797 252.109 244.539L251.898 244.504C251.43 244.551 251.195 244.621 251.195 244.715V249.496C251.195 250.129 251.254 250.855 251.371 251.676L251.301 252.695V253.645C251.301 253.809 251.992 253.996 253.375 254.207C254.617 254.207 255.355 254.324 255.59 254.559L255.73 254.664C255.59 254.664 255.438 255.344 255.273 256.703L253.832 256.492L253.375 256.562C251.758 256.328 250.445 256.211 249.438 256.211L246.555 256.281C246.461 256.188 246.414 256.012 246.414 255.754V254.98C246.414 254.23 246.367 253.715 246.273 253.434C246.273 253.27 246.473 253.188 246.871 253.188C247.105 253.188 247.562 253.293 248.242 253.504H248.77C249.004 253.504 249.156 253.434 249.227 253.293V253.223C249.016 252.707 248.91 251.852 248.91 250.656C248.77 250.094 248.699 249.613 248.699 249.215V249.145C248.699 248.559 248.863 247.082 249.191 244.715C249.191 244.645 248.98 244.586 248.559 244.539H248.418C247.434 244.844 246.59 244.996 245.887 244.996L245.359 244.891C245.477 242.711 245.617 241.621 245.781 241.621C245.805 241.551 245.898 241.516 246.062 241.516H246.238C248.043 241.469 248.945 241.398 248.945 241.305C248.945 240.133 248.934 239.078 248.91 238.141C248.887 237.203 248.875 236.723 248.875 236.699V236.559L248.664 235.926C248.992 235.34 249.32 234.883 249.648 234.555L251.301 232.832C252.262 232.387 253.328 232.164 254.5 232.164ZM251.793 233.535C252.66 233.535 253.305 233.359 253.727 233.008V232.902H253.656C252.977 232.902 252.355 233.113 251.793 233.535ZM257.102 233.465C257.5 233.934 257.863 234.168 258.191 234.168V233.922C257.91 233.547 257.582 233.359 257.207 233.359H257.172C257.125 233.359 257.102 233.395 257.102 233.465ZM254.852 233.535L254.535 233.605V233.676C254.582 233.746 254.664 233.781 254.781 233.781H255.273L255.379 233.711C255.379 233.594 255.203 233.535 254.852 233.535ZM254.113 234.484L254.008 234.59V234.625H254.113L254.219 234.555V234.484H254.113ZM257.98 236.242H257.91V236.312C257.91 236.617 258.027 236.898 258.262 237.156H258.402L258.438 236.91C258.414 236.465 258.262 236.242 257.98 236.242ZM258.684 238.457L258.789 238.492H258.93L258.965 238.316V237.895H258.93C258.766 238.035 258.684 238.223 258.684 238.457ZM245.922 242.113V242.254L246.027 242.324H246.203C246.344 242.301 246.449 242.195 246.52 242.008L246.414 241.902H246.273C246.109 241.902 245.992 241.973 245.922 242.113ZM247.645 242.254L247.469 242.395V242.465C247.469 242.629 247.539 242.746 247.68 242.816C247.844 242.816 248.055 242.723 248.312 242.535C248.312 242.465 248.102 242.371 247.68 242.254H247.645ZM251.969 242.676H251.793V242.781C251.887 242.945 252.062 243.027 252.32 243.027H252.531V242.922C252.438 242.758 252.25 242.676 251.969 242.676ZM253.727 243.098H253.621V243.168H253.727V243.098ZM250.141 243.133H250.105V243.414L250.211 243.484V243.449V243.203L250.141 243.133ZM247.75 243.449L247.68 243.555V243.625L247.891 243.66H247.996L248.031 243.555C248.031 243.531 247.938 243.496 247.75 243.449ZM253.691 244.012L253.832 244.047C254.512 243.93 254.852 243.801 254.852 243.66V243.555H254.641C254.008 243.625 253.691 243.777 253.691 244.012ZM246.273 243.836C246.133 244.047 246.062 244.223 246.062 244.363V244.504L246.133 244.574H246.52L246.59 244.504C246.59 244.246 246.484 244.023 246.273 243.836ZM248.594 244.012L248.523 244.117V244.152H248.945L249.051 244.047V244.012H248.594ZM250 245.066H249.93L249.824 246.051L249.895 246.648H249.93L250 246.086V245.066ZM250.422 246.016H250.316V246.121H250.422V246.016ZM250.352 246.648H250.211V246.824V246.965L250.352 246.824V246.648ZM250.281 247.246L250.141 247.211L250.105 247.246V247.316L250.141 247.527H250.281V247.246ZM249.754 247.879L249.895 248.266L249.824 248.723C249.895 249.473 249.988 249.848 250.105 249.848H250.141C250.258 249.848 250.328 249.426 250.352 248.582V248.406C250.352 247.938 250.211 247.703 249.93 247.703H249.824C249.777 247.703 249.754 247.762 249.754 247.879ZM250.105 251.535H249.93V251.676L250.07 251.746H250.141L250.105 251.535ZM250 252.484H249.93C249.906 252.648 249.895 253 249.895 253.539V253.574H250.07L250.211 253.434V252.977C250.141 252.648 250.07 252.484 250 252.484ZM247.574 253.715H247.469V253.855C247.469 253.949 247.656 254.008 248.031 254.031L248.418 253.961V253.926C248.043 253.785 247.762 253.715 247.574 253.715ZM253.867 254.805V254.875L254.184 254.91C254.652 254.863 254.887 254.805 254.887 254.734L254.852 254.664H254.219C253.984 254.664 253.867 254.711 253.867 254.805ZM247.434 255.191L247.363 255.262V255.297C247.363 255.461 247.844 255.566 248.805 255.613L248.875 255.543C248.57 255.309 248.172 255.191 247.68 255.191H247.434ZM249.297 255.191V255.262C249.508 255.496 249.707 255.613 249.895 255.613H250.141V255.543C249.836 255.309 249.555 255.191 249.297 255.191ZM254.641 255.508L254.5 255.613V255.684L254.746 255.965H254.852L254.922 255.859V255.613L254.781 255.508H254.641ZM251.16 255.543H250.633V255.613C250.633 255.754 250.855 255.836 251.301 255.859H251.863L251.969 255.754C251.969 255.613 251.699 255.543 251.16 255.543ZM275.664 239.793L276.648 239.723C276.953 241.199 276.941 241.961 276.613 242.008C276.309 242.008 276.73 243.355 277.879 246.051C278.395 247.34 278.805 248.277 279.109 248.863C279.789 250.527 280.234 251.359 280.445 251.359C280.516 251.359 280.633 251.5 280.797 251.781L280.832 251.852H281.219C281.477 251.852 281.91 250.832 282.52 248.793C284.793 244.527 285.438 242.383 284.453 242.359C284.406 242.359 284.348 242.371 284.277 242.395C284.418 241.457 284.453 240.66 284.383 240.004L284.559 239.863C287.605 239.934 289.129 240.051 289.129 240.215C289.246 240.215 289.305 240.812 289.305 242.008C289.141 242.711 288.93 243.062 288.672 243.062C288.414 243.039 288.273 243.039 288.25 243.062C288.227 243.086 288.285 243.121 288.426 243.168H288.18C287.266 244.715 286.809 245.723 286.809 246.191C286.527 247.34 286.164 248.137 285.719 248.582C284.992 250.691 284.43 252.145 284.031 252.941C283.867 253.129 283.703 253.738 283.539 254.77L282.027 257.23C281.301 258.871 280.305 260.441 279.039 261.941L277.316 263.102C276.613 263.289 276.062 263.383 275.664 263.383C273.93 263.383 273.062 263.207 273.062 262.855C272.875 262.738 272.723 262.41 272.605 261.871C272.254 261.52 271.82 260.289 271.305 258.18V258.109C271.305 257.875 271.539 257.758 272.008 257.758C272.406 257.758 273.109 257.547 274.117 257.125C274.422 257.125 274.844 258.203 275.383 260.359C275.547 260.852 275.676 261.098 275.77 261.098H276.051C276.238 261.027 276.426 260.746 276.613 260.254C276.754 260.254 277.223 259.645 278.02 258.426C278.371 257.676 278.746 256.984 279.145 256.352L279.25 255.93V255.227C279.227 254.875 278.98 254.348 278.512 253.645C278.043 252.848 277.668 252.098 277.387 251.395C276.285 248.441 275.031 245.699 273.625 243.168C273.531 243.074 273.426 243.027 273.309 243.027L271.164 243.133L271.059 243.027L270.988 241.867L270.918 240.355L271.551 240.074L275.031 239.723L275.664 239.793ZM285.578 240.742L285.156 240.637L285.965 240.988L286.457 240.883H286.527L287.125 240.953V240.883C287.125 240.789 286.891 240.719 286.422 240.672H285.895C285.684 240.672 285.578 240.695 285.578 240.742ZM288.039 240.637L287.969 240.707V240.742C288.016 240.836 288.086 240.895 288.18 240.918L288.812 240.848V240.742C288.789 240.672 288.707 240.637 288.566 240.637H288.039ZM271.41 242.008L271.34 242.043V242.324L271.516 242.465H271.973C272.465 242.441 272.711 242.371 272.711 242.254C272.711 242.16 272.277 242.078 271.41 242.008ZM274.645 242.395L274.539 242.465C274.539 242.746 274.703 243.109 275.031 243.555H275.066V243.168C275.066 242.77 274.961 242.512 274.75 242.395H274.645ZM287.547 241.867V241.938L287.688 242.078C288.508 241.891 288.918 241.738 288.918 241.621L288.812 241.516H288.672C287.992 241.586 287.617 241.703 287.547 241.867ZM287.055 241.691L286.949 241.762V241.938C287.02 242.078 287.16 242.148 287.371 242.148L287.406 242.113V241.938L287.16 241.691H287.055ZM286.914 242.887H286.738V243.062H286.914V242.887ZM286.773 243.906H286.668C285.754 245.688 285.25 246.613 285.156 246.684V246.93C285.156 247.023 285.262 247.188 285.473 247.422L285.227 248.125H285.297C285.625 247.633 286.094 246.414 286.703 244.469L286.773 243.906ZM281.641 253.82V253.996H281.816C282.191 253.996 282.672 252.871 283.258 250.621C283.258 250.574 283.375 250.445 283.609 250.234C283.609 250.047 283.68 249.918 283.82 249.848V249.812L283.715 249.531C283.832 249.297 283.832 249.285 283.715 249.496C283.668 249.59 283.574 249.766 283.434 250.023C283.082 250.656 282.766 251.23 282.484 251.746C282.391 252.074 282.109 252.766 281.641 253.82ZM277.844 248.512H277.809V248.582C278.301 249.941 278.594 250.621 278.688 250.621H278.723V250.551C278.277 249.191 277.984 248.512 277.844 248.512ZM283.996 251.641H284.031C284.406 251.641 284.711 250.75 284.945 248.969H284.91C284.816 248.969 284.699 249.262 284.559 249.848C284.23 250.645 284.043 251.242 283.996 251.641ZM277.668 249.918L277.562 250.023V250.129L277.668 250.199L277.809 250.129V250.094L277.668 249.918ZM278.723 250.797L278.617 250.902V250.973L278.828 251.148C278.898 251.148 278.934 251.113 278.934 251.043C278.887 250.949 278.828 250.867 278.758 250.797H278.723ZM281.289 256.281V256.352H281.465C281.629 256.352 281.957 255.766 282.449 254.594V254.559C282.121 254.559 281.734 255.133 281.289 256.281ZM279.953 255.191V255.227H279.988C280.176 255.227 280.27 255.145 280.27 254.98V254.77H280.129C280.012 254.816 279.953 254.957 279.953 255.191ZM280.973 257.547L280.691 257.969L280.727 258.074C280.938 257.91 281.043 257.734 281.043 257.547H280.973ZM272.957 258.25L272.852 258.355C273.039 258.613 273.145 258.848 273.168 259.059L273.449 259.34L273.59 259.305V259.129C273.59 258.777 273.438 258.484 273.133 258.25H272.957ZM277.562 260.5V260.535C277.797 260.535 278.031 260.242 278.266 259.656H278.195C277.914 259.797 277.703 260.078 277.562 260.5ZM273.66 259.973H273.59V260.078C273.59 260.336 273.684 260.523 273.871 260.641L273.977 260.57V260.5C273.977 260.312 273.871 260.137 273.66 259.973ZM278.406 261.238L278.09 261.66L278.16 261.73H278.195C278.828 261.402 279.203 261.074 279.32 260.746C279.227 260.652 279.133 260.605 279.039 260.605H278.898C278.688 260.605 278.523 260.816 278.406 261.238ZM274.609 261.309H274.398V261.414L274.539 261.59H274.855L274.961 261.52C274.961 261.402 274.844 261.332 274.609 261.309ZM276.297 261.977L276.93 262.434H277.07C277.164 262.41 277.211 262.316 277.211 262.152V261.977C277.188 261.906 277.094 261.871 276.93 261.871H276.613C276.402 261.871 276.297 261.906 276.297 261.977ZM275.066 262.293L275.031 262.398C275.102 262.562 275.254 262.645 275.488 262.645H275.98L276.051 262.539V262.504C276.051 262.387 275.91 262.316 275.629 262.293H275.066ZM299.148 239.371L300.133 239.652H300.449C301.785 240.309 303.027 241.094 304.176 242.008C305.371 243.039 305.969 243.812 305.969 244.328H305.898C305.711 244 305.523 243.836 305.336 243.836H305.301C305.23 243.836 305.195 243.883 305.195 243.977C305.289 244.234 305.5 244.68 305.828 245.312H305.898C305.945 245.312 306.004 245.195 306.074 244.961H306.109C306.18 244.984 306.262 245.324 306.355 245.98L306.672 246.684L306.602 247.141L306.707 248.406C306.543 248.992 306.391 249.766 306.25 250.727C306.156 251.172 305.066 252.836 302.98 255.719C302.043 256.609 301.129 257.055 300.238 257.055C299.418 257.148 298.492 257.195 297.461 257.195H296.793C296.395 257.195 295.352 256.855 293.664 256.176C291.531 254.277 290.465 252.824 290.465 251.816C290.16 251.184 289.902 250.598 289.691 250.059C289.691 249.754 290.008 248.746 290.641 247.035C290.641 245.957 290.898 245.207 291.414 244.785C292.516 242.418 293.91 240.883 295.598 240.18C297.074 239.641 298.258 239.371 299.148 239.371ZM292.82 250.41V250.621C293.148 251.254 293.512 251.934 293.91 252.66C293.91 252.895 294.355 253.223 295.246 253.645C295.668 254.137 296.453 254.523 297.602 254.805L298.234 254.875C299.266 254.664 300.039 254.441 300.555 254.207L301.82 253.152C303.133 251.746 303.766 250.562 303.719 249.602V249.285C303.578 248.91 303.508 248.301 303.508 247.457C303.508 246.801 303.555 246.285 303.648 245.91C303.648 245.746 303.191 245.336 302.277 244.68C301.621 243.742 300.941 243.168 300.238 242.957H299.816C297.074 243.074 295.703 243.297 295.703 243.625C295.094 244.234 294.672 244.832 294.438 245.418C293.688 246.215 293.312 246.742 293.312 247C293.102 247.961 292.938 249.098 292.82 250.41ZM293.91 241.902L293.805 242.078V242.219C293.945 242.219 294.66 241.727 295.949 240.742L296.23 240.637L296.441 240.672C298.012 240.508 298.797 240.355 298.797 240.215V240.18L298.234 240.074C296.641 240.074 295.199 240.684 293.91 241.902ZM296.652 242.641V242.676L296.723 242.781H297.215L299.711 242.219V242.148L299.043 242.008C297.449 242.195 296.652 242.406 296.652 242.641ZM291.133 251.395L290.992 251.5V251.746C291.039 252.543 291.262 252.988 291.66 253.082L291.695 253.047V253.012C291.531 251.934 291.344 251.395 291.133 251.395ZM296.582 241.445V241.621C298.41 241.41 299.324 241.27 299.324 241.199L299.043 241.094H299.008C297.883 241.094 297.074 241.211 296.582 241.445ZM299.57 240.109C299.688 240.438 299.945 240.602 300.344 240.602L300.695 240.637L300.766 240.602V240.426C300.766 240.168 300.52 240.016 300.027 239.969C299.723 239.992 299.57 240.039 299.57 240.109ZM293.172 254.945H292.926V255.086C293.23 255.391 293.781 255.543 294.578 255.543H294.965C294.848 255.379 294.25 255.18 293.172 254.945ZM298.973 256.246V256.316C298.973 256.387 299.148 256.445 299.5 256.492C299.898 256.492 300.098 256.434 300.098 256.316V256.246C300.074 256.152 299.992 256.059 299.852 255.965H299.535C299.277 255.965 299.09 256.059 298.973 256.246ZM305.652 249.566C305.676 250.27 305.734 250.645 305.828 250.691H305.898C305.898 250.434 306.004 250.152 306.215 249.848V249.742L305.828 249.215H305.758C305.711 249.215 305.676 249.332 305.652 249.566ZM303.332 243.52H303.191C303.332 243.824 303.672 244.082 304.211 244.293H304.352L304.457 244.188V244.152C304.059 243.73 303.684 243.52 303.332 243.52ZM302.559 242.43V242.5C302.629 242.781 302.957 243.074 303.543 243.379H303.648L303.719 243.273V243.238C303.602 243.074 303.215 242.805 302.559 242.43ZM300.238 241.27L300.168 241.305C300.613 241.656 300.965 241.832 301.223 241.832L301.258 241.762V241.727C300.883 241.422 300.543 241.27 300.238 241.27ZM295.562 255.402V255.508C295.562 255.648 295.891 255.719 296.547 255.719L296.582 255.684V255.613C296.277 255.473 295.938 255.402 295.562 255.402ZM302.031 240.883L301.926 240.988C302.184 241.316 302.441 241.48 302.699 241.48C302.699 241.223 302.5 241.023 302.102 240.883H302.031ZM293.453 244.504V244.75H293.559C293.863 244.469 294.016 244.246 294.016 244.082V244.047H293.84C293.699 244.141 293.57 244.293 293.453 244.504ZM301.398 242.887C301.539 243.121 301.703 243.238 301.891 243.238L301.926 243.168V243.098C301.926 242.887 301.832 242.781 301.645 242.781C301.48 242.805 301.398 242.84 301.398 242.887ZM304.809 252.133V252.168C304.996 252.168 305.16 251.98 305.301 251.605V251.535H305.195C305.055 251.535 304.926 251.734 304.809 252.133ZM294.191 242.676C294.402 242.676 294.602 242.535 294.789 242.254V242.148C294.391 242.266 294.191 242.441 294.191 242.676ZM305.371 251.5H305.547L305.688 251.605C305.711 251.23 305.652 251.066 305.512 251.113H305.441L305.406 250.867L305.371 251.5ZM300.871 256.492H300.906C301.328 256.352 301.539 256.234 301.539 256.141L301.469 256.07C301.141 256.188 300.941 256.328 300.871 256.492ZM292.434 253.715L292.293 253.785V253.855L292.574 254.137H292.715C292.715 253.973 292.621 253.832 292.434 253.715ZM294.824 255.895V255.93H295.281L295.352 255.859L295.281 255.754H295.211C294.977 255.754 294.848 255.801 294.824 255.895ZM306.215 247.07L306.109 247.176V247.316L306.215 247.457L306.355 247.316V247.176L306.25 247.07H306.215ZM291.344 245.945C291.461 245.945 291.566 245.863 291.66 245.699V245.629C291.449 245.629 291.344 245.734 291.344 245.945ZM290.254 249.742L290.184 249.848C290.207 250.059 290.242 250.164 290.289 250.164L290.359 250.129V249.953L290.289 249.742H290.254ZM299.641 241.621V241.656L299.992 241.375L299.922 241.34C299.688 241.48 299.594 241.574 299.641 241.621ZM292.047 244.75H292.082C292.176 244.727 292.223 244.633 292.223 244.469H292.152C292.082 244.516 292.047 244.609 292.047 244.75ZM292.258 248.969L292.117 249.109V249.18H292.223L292.293 249.074V248.969H292.258ZM294.332 243.66H294.191V243.801H294.262L294.332 243.73V243.66ZM310.363 238.562L312.754 239.371C312.777 239.723 312.918 240.098 313.176 240.496L313.246 240.883C313.035 242.383 312.977 245.5 313.07 250.234C313.07 250.914 313.352 251.359 313.914 251.57L314.16 252.133C314.16 252.273 314.934 252.402 316.48 252.52H316.621C317.113 252.52 317.723 251.992 318.449 250.938C319.012 250.375 319.387 249.93 319.574 249.602H319.75V249.391L319.68 249.215C319.82 249.004 319.926 248.688 319.996 248.266H320.031V247.949L320.664 241.27V240.637L320.594 240.285V240.25C320.852 240.062 320.98 239.77 320.98 239.371C320.98 239.113 321.062 238.973 321.227 238.949L322.035 239.371H322.809C323.746 239.371 324.414 239.57 324.812 239.969V240.109C324.555 240.109 324.426 240.156 324.426 240.25L324.777 241.059H324.883C324.93 240.707 324.977 240.531 325.023 240.531C325.117 240.648 325.176 240.848 325.199 241.129L324.812 245.488L324.883 245.559V245.594C324.719 246.086 324.555 247.504 324.391 249.848V250.867C324.391 252.391 324.461 253.152 324.602 253.152H324.742C325.164 253.152 325.844 253.059 326.781 252.871C326.875 252.895 327.086 253.035 327.414 253.293C327.32 255.402 327.18 256.457 326.992 256.457L326.605 256.141L325.551 256.211L321.648 256.141C321.438 256.141 321.227 255.66 321.016 254.699C320.875 254.582 320.805 254.441 320.805 254.277L320.875 253.961H320.77C320.582 253.961 319.891 254.277 318.695 254.91C318.625 255.074 317.805 255.414 316.234 255.93C315.883 256.117 315.414 256.305 314.828 256.492C314.477 256.281 313.914 256.07 313.141 255.859C311.664 254.406 310.762 253.129 310.434 252.027C309.824 251.16 309.52 249.309 309.52 246.473L309.906 242.359V242.254C309.906 242.207 309.109 242.055 307.516 241.797C307.375 241.586 307.305 241 307.305 240.039C307.305 239.406 307.41 239.09 307.621 239.09C307.621 238.832 308.535 238.656 310.363 238.562ZM309.766 238.984L309.625 239.055V239.125H309.871V239.055L309.766 238.984ZM310.645 239.266L310.469 239.336V239.371C310.469 239.395 310.645 239.5 310.996 239.688C310.996 239.992 311.02 240.145 311.066 240.145H311.277C311.84 240.145 312.18 240.051 312.297 239.863V239.793C312.297 239.629 311.945 239.5 311.242 239.406C311.242 239.359 311.102 239.312 310.82 239.266H310.645ZM308.254 240.25H307.797V240.355L307.867 240.391H307.973L308.254 240.355V240.25ZM308.254 240.602H307.973V240.672C307.996 240.812 308.125 240.883 308.359 240.883L308.395 240.812V240.742L308.254 240.602ZM321.332 239.758H321.262C321.262 239.992 321.449 240.109 321.824 240.109H322.035L322.141 240.039V240.004C322.141 239.887 321.871 239.805 321.332 239.758ZM309.168 241.023C309.168 241.164 309.543 241.363 310.293 241.621H310.645C310.738 241.621 310.785 241.539 310.785 241.375C310.527 241.117 310.211 240.953 309.836 240.883H309.555C309.32 240.883 309.191 240.93 309.168 241.023ZM308.711 240.918L308.535 240.988V241.094L308.57 241.129V241.164C308.781 241.117 308.887 241.059 308.887 240.988V240.918H308.711ZM311.805 241.305V241.973L311.91 242.043C312.051 241.973 312.121 241.832 312.121 241.621V241.234C312.121 241.094 312.086 241 312.016 240.953H311.945C311.852 240.977 311.805 241.094 311.805 241.305ZM307.938 241.164L307.797 241.305L307.867 241.375H308.148L308.254 241.305L308.113 241.164H307.938ZM321.648 240.883L321.543 240.988V241.059C321.543 241.152 321.625 241.199 321.789 241.199H321.824C321.988 241.199 322.082 241.152 322.105 241.059V240.988C322.082 240.918 321.965 240.883 321.754 240.883H321.648ZM310.258 242.887V243.168L310.785 242.992V242.254L310.715 242.148C310.598 242.148 310.445 242.395 310.258 242.887ZM322.141 244.75V244.891H322.176C322.41 244.891 322.527 244.621 322.527 244.082C322.504 243.848 322.469 243.73 322.422 243.73C322.352 243.73 322.258 244.07 322.141 244.75ZM323.547 245.84H323.441L323.371 245.98C323.418 246.098 323.465 246.156 323.512 246.156H323.547V245.84ZM310.891 246.824L310.785 246.789L310.645 246.93V247L310.785 247.07L310.891 246.965V246.824ZM321.648 248.09L321.824 248.266C321.941 248.219 322.012 247.984 322.035 247.562L322 247.492H321.93C321.742 247.633 321.648 247.832 321.648 248.09ZM311.594 248.02V248.266C311.594 248.57 311.746 248.805 312.051 248.969H312.156C312.156 248.102 312.086 247.668 311.945 247.668H311.805C311.664 247.738 311.594 247.855 311.594 248.02ZM321.578 248.477L321.473 248.582V248.898L321.578 249.039C321.719 248.969 321.824 248.863 321.895 248.723V248.582L321.789 248.477H321.578ZM310.398 248.863L310.293 248.969V249.109C310.293 250.023 310.785 251.453 311.77 253.398C311.957 253.516 312.086 253.574 312.156 253.574V253.398L311.137 250.551C310.832 249.473 310.598 248.91 310.434 248.863H310.398ZM322.422 249.848L322.281 249.988V250.023L322.422 250.129L322.527 250.023L322.492 249.848H322.422ZM318.555 251.57L318.59 251.641H318.625C319.188 250.891 319.469 250.457 319.469 250.34V250.27H319.363C319.176 250.504 318.906 250.938 318.555 251.57ZM312.262 250.34V250.375C312.332 250.516 312.426 250.586 312.543 250.586V250.551C312.543 250.41 312.449 250.34 312.262 250.34ZM322.352 250.41H322.281V250.621C322.281 250.996 322.34 251.477 322.457 252.062H322.562C322.656 251.711 322.703 251.371 322.703 251.043V250.797C322.703 250.539 322.586 250.41 322.352 250.41ZM320.453 250.762L320.312 250.586C320.172 250.773 320.102 250.914 320.102 251.008L320.277 251.113H320.312L320.453 251.008V250.762ZM321.648 251.113H321.578V251.359H321.648L321.754 251.254V251.148L321.648 251.113ZM313.281 252.133H313.246V252.238L313.316 252.344H313.352V252.238L313.281 252.133ZM323.863 252.168L323.512 252.695V252.801H323.863L324.004 252.695V252.52C324.004 252.309 323.957 252.191 323.863 252.168ZM320.594 252.766V252.801H320.664L320.91 252.59V252.449C320.699 252.449 320.594 252.555 320.594 252.766ZM321.648 252.695L321.543 252.801V253.223C321.543 254.863 321.625 255.684 321.789 255.684H321.895C322.059 255.66 322.141 255.59 322.141 255.473C321.953 255.145 321.848 254.289 321.824 252.906L321.648 252.695ZM313.035 252.871H312.93V253.012C312.953 253.105 313.035 253.152 313.176 253.152V253.012L313.035 252.871ZM313.914 253.117H313.809V253.152C313.809 253.41 314.219 253.785 315.039 254.277C315.977 253.902 316.445 253.668 316.445 253.574V253.539C315.836 253.539 314.992 253.398 313.914 253.117ZM315.602 254.418V254.488H316.023C316.938 254.277 317.547 253.961 317.852 253.539V253.398H317.676C317.535 253.398 316.844 253.738 315.602 254.418ZM325.973 253.68L324.883 253.82V253.961L325.094 253.996H325.234C325.75 253.973 326.008 253.891 326.008 253.75V253.68H325.973ZM325.973 254.277H325.832V254.488H325.973L326.078 254.418V254.348C326.078 254.301 326.043 254.277 325.973 254.277ZM323.125 254.84L323.02 254.91V255.016C323.066 255.133 323.207 255.191 323.441 255.191H323.793L323.898 255.121V255.051C323.898 254.934 323.746 254.863 323.441 254.84H323.125ZM314.934 255.191H314.652L313.246 255.051H313.176L313.035 255.191V255.227C313.035 255.438 313.691 255.672 315.004 255.93C315.402 255.93 316.188 255.637 317.359 255.051L317.395 255.016V254.91H317.148C316.445 255.098 315.707 255.191 314.934 255.191ZM353.148 229.492L354.695 229.457C355.656 229.645 356.137 229.785 356.137 229.879C356.184 229.879 356.23 230.219 356.277 230.898C356.535 231.203 356.664 231.402 356.664 231.496C356.547 232.621 356.441 234.918 356.348 238.387C356.301 238.387 356.277 238.504 356.277 238.738C356.09 238.855 355.996 238.984 355.996 239.125V239.688C355.996 240.156 355.879 240.695 355.645 241.305L355.609 241.797C355.609 241.891 355.738 241.961 355.996 242.008V242.254C355.645 245.23 355.469 247.176 355.469 248.09C355.469 249.168 355.398 249.707 355.258 249.707V249.777C355.398 249.777 355.48 249.93 355.504 250.234L355.469 250.48V250.621C355.469 251.066 355.328 252.145 355.047 253.855V254.664C356.219 254.922 356.805 255.262 356.805 255.684L356.629 255.859V256.176L356.805 256.457C356.617 256.949 355.949 257.195 354.801 257.195H354.59L354.414 256.914H354.027L353.078 257.125L351.742 257.09C351.648 257.09 351.543 256.492 351.426 255.297L351.496 254.172C351.191 254.172 350.711 254.43 350.055 254.945C348.109 256.023 346.398 256.609 344.922 256.703C343.562 256.352 342.344 255.672 341.266 254.664C340.914 254.312 340.551 253.762 340.176 253.012C339.754 252.426 339.543 252.074 339.543 251.957V251.816H339.648C339.812 251.934 340.117 252.332 340.562 253.012L340.738 253.047L340.773 253.012V252.555C340.773 252.086 340.527 251.523 340.035 250.867H339.859C339.719 250.867 339.637 251.078 339.613 251.5H339.508L339.438 251.324C339.484 250.41 339.52 249.812 339.543 249.531H339.754L339.789 249.848H339.859C339.977 249.801 340.035 249.684 340.035 249.496V248.828L339.965 248.723C339.895 248.723 339.859 248.816 339.859 249.004L339.648 249.215C339.602 249.215 339.566 249.133 339.543 248.969C339.543 247.211 340.117 245.336 341.266 243.344C341.805 242.406 342.344 241.656 342.883 241.094C343.633 240.414 344.816 240.074 346.434 240.074H346.75C349.234 240.074 351.262 240.719 352.832 242.008L353.078 242.148H353.184C353.395 241.117 353.605 238.504 353.816 234.309C353.934 234.121 354.027 234.027 354.098 234.027C353.348 233.535 352.832 233.289 352.551 233.289C352.34 233.289 352.211 232.48 352.164 230.863C352.211 230.816 352.398 230.781 352.727 230.758V230.617C352.703 230.523 352.609 230.477 352.445 230.477C352.328 230.406 352.27 230.324 352.27 230.23C352.27 229.996 352.539 229.879 353.078 229.879V229.738L352.938 229.598V229.527L353.148 229.492ZM353.184 231.004L353.148 231.109V231.145H353.57V231.109L353.465 231.004H353.184ZM355.152 231.355L355.082 231.461V231.496H355.609V231.391L355.363 231.355H355.152ZM354.062 232.023L354.133 232.129C354.695 232.105 354.977 232.035 354.977 231.918L354.836 231.812H354.414C354.25 231.812 354.133 231.883 354.062 232.023ZM353.148 231.883L353.078 231.988V232.059L353.324 232.129C353.465 232.129 353.547 232.082 353.57 231.988L353.465 231.883H353.148ZM345.344 240.988L345.238 241.129V241.305L345.344 241.375H345.52L345.695 241.234V241.129L345.555 240.988H345.344ZM347.418 241.375L347.488 241.516H349.035V241.375C348.895 241.234 348.508 241.152 347.875 241.129H347.523C347.453 241.152 347.418 241.234 347.418 241.375ZM355.82 241.305V241.129H355.996V241.305H355.82ZM342.953 242.078V242.219L343.023 242.254H343.164C343.984 242.043 344.395 241.797 344.395 241.516C344.371 241.422 344.254 241.375 344.043 241.375H343.867C343.516 241.375 343.211 241.609 342.953 242.078ZM350.512 241.727L350.02 241.762H349.949V241.867C350.512 242.102 350.875 242.219 351.039 242.219H351.074C351.074 241.984 350.887 241.82 350.512 241.727ZM353.922 241.902H353.781C353.781 242.137 353.828 242.254 353.922 242.254L353.957 242.219V242.113L353.922 241.902ZM346.504 242.535L346.434 242.605L346.504 242.641H346.645L346.75 242.57V242.535H346.504ZM341.406 244.996V245.102H341.512C341.652 245.055 341.805 244.785 341.969 244.293C342.672 243.309 343.141 242.816 343.375 242.816L343.516 242.57H343.305C343.211 242.57 342.824 242.805 342.145 243.273C341.699 243.93 341.453 244.504 341.406 244.996ZM345.344 242.781L345.273 242.887H345.625L345.73 242.816V242.781H345.344ZM347.172 242.957L347.242 242.992H347.312L348.086 242.887V242.816L347.84 242.781C347.395 242.805 347.172 242.863 347.172 242.957ZM349.035 242.781L348.965 242.887L349.07 242.992H349.281L349.352 242.887C349.305 242.816 349.211 242.781 349.07 242.781H349.035ZM350.652 242.816H350.512L350.652 242.957L350.723 242.887L350.652 242.816ZM351.426 243.027H351.039C351.039 243.121 351.379 243.262 352.059 243.449H352.094V243.344C351.906 243.133 351.684 243.027 351.426 243.027ZM341.617 249.883V250.41C341.617 250.738 342.062 251.688 342.953 253.258C343.609 253.609 344.312 253.785 345.062 253.785C346.68 253.785 348.25 253.398 349.773 252.625C350.406 251.664 350.957 251.184 351.426 251.184C351.684 250.926 351.965 250.047 352.27 248.547C352.457 248.125 352.551 247.691 352.551 247.246V246.895C352.551 245.91 352.422 245.418 352.164 245.418C351.625 244.926 351.355 244.633 351.355 244.539L351.496 244.328C351.496 244.234 351.156 244.094 350.477 243.906L350.266 243.766L350.301 243.695H350.828V243.66C350.828 243.426 349.551 243.297 346.996 243.273L346.504 243.168C344.629 243.355 343.691 243.602 343.691 243.906C342.824 244.938 342.262 246.203 342.004 247.703C341.746 248.594 341.617 249.32 341.617 249.883ZM351.883 244.328L351.742 244.469V244.75L351.918 244.926H352.023C352.117 244.902 352.164 244.809 352.164 244.645C352.164 244.504 352.094 244.398 351.953 244.328H351.883ZM341.055 248.125C341.055 248.195 341.09 248.23 341.16 248.23C341.324 248.23 341.441 247.996 341.512 247.527V247.316H341.406C341.289 247.316 341.172 247.586 341.055 248.125ZM352.234 253.434V253.645C352.375 253.645 352.445 253.75 352.445 253.961H352.516L352.691 253.785V253.504C352.598 253.434 352.551 253.316 352.551 253.152H352.445C352.305 253.176 352.234 253.27 352.234 253.434ZM349.598 253.715V253.855H349.633C349.867 253.762 350.055 253.609 350.195 253.398V253.328L350.125 253.258H350.055C349.891 253.328 349.738 253.48 349.598 253.715ZM346.082 254.172V254.277H346.504C348.051 254.184 348.906 253.961 349.07 253.609V253.504H348.965C347.16 253.809 346.199 254.031 346.082 254.172ZM354.133 253.645H354.098L354.062 253.926V254.383L354.133 254.488H354.203L354.273 254.383V254.031C354.273 253.797 354.227 253.668 354.133 253.645ZM341.688 253.961H341.547V254.066C341.547 254.207 341.934 254.312 342.707 254.383V254.277C342.168 254.066 341.828 253.961 341.688 253.961ZM342.496 254.523L342.391 254.594C342.391 254.852 343.082 255.109 344.465 255.367H344.641L344.711 255.297V255.262C344.711 255.004 344.043 254.758 342.707 254.523H342.496ZM352.445 254.664L352.27 254.805V254.875H352.375L352.516 254.734V254.664H352.445ZM346.961 254.945V255.016L347.066 255.086H347.277C348.027 255.039 348.402 254.969 348.402 254.875L348.297 254.805H347.629C347.184 254.805 346.961 254.852 346.961 254.945ZM354.379 254.91H354.203V255.016L354.273 255.086H354.449V255.016L354.379 254.91ZM344.605 255.965V256.07L344.641 256.176H345.098C345.473 256.176 346.023 256.094 346.75 255.93V255.859L345.73 255.754C344.98 255.801 344.605 255.871 344.605 255.965ZM354.941 256.035C354.965 256.129 355.082 256.176 355.293 256.176H355.996L356.242 256.105V256.035C356.242 255.965 356.102 255.906 355.82 255.859C355.234 255.883 354.941 255.941 354.941 256.035ZM362.148 236.945L366.508 236.84C366.883 236.84 367.668 237.004 368.863 237.332C370.223 238.621 371.031 239.629 371.289 240.355C371.805 240.895 372.215 241.961 372.52 243.555C372.895 243.93 373.082 244.762 373.082 246.051L373.117 246.93L372.977 250.41C372.977 251.113 373.41 251.98 374.277 253.012C375.074 253.785 375.59 254.172 375.824 254.172V254.242C375.824 254.523 375.414 254.969 374.594 255.578C373.984 256.188 373.598 256.492 373.434 256.492H373.398C373.023 256.445 372.074 255.754 370.551 254.418C367.785 255.496 366.391 256.047 366.367 256.07C365.453 256.352 364.434 256.492 363.309 256.492H363.133C361.867 256.281 360.789 255.789 359.898 255.016C359.734 254.875 359.395 254.289 358.879 253.258C358.457 252.742 358.246 252.109 358.246 251.359V250.34C358.246 249.684 358.422 249.074 358.773 248.512C359.078 247.551 359.605 246.637 360.355 245.77C360.73 245.324 361.105 245.043 361.48 244.926C362.699 244.27 363.906 243.941 365.102 243.941L366.684 243.906H366.895C367.785 243.906 368.418 244.035 368.793 244.293H369.004C369.121 244.293 369.18 244.246 369.18 244.152C368.922 243.051 368.5 241.996 367.914 240.988C367.398 240.121 366.438 239.688 365.031 239.688L363.59 239.477C362.348 239.734 361.727 239.992 361.727 240.25C361.234 240.883 360.941 241.668 360.848 242.605C360.801 242.723 360.379 242.781 359.582 242.781L359.371 242.852C359.277 242.852 359.16 243.051 359.02 243.449C358.363 243.355 358.035 243.215 358.035 243.027C358.082 242.887 358.164 242.043 358.281 240.496C358.656 239.418 359.547 238.422 360.953 237.508C361.609 237.133 362.008 236.945 362.148 236.945ZM366.086 237.543L366.016 237.648L366.121 237.789H366.332L366.367 237.719L366.262 237.543H366.086ZM368.758 237.824H368.688V237.895C368.875 238.082 369.039 238.176 369.18 238.176H369.215V238.105C369.027 237.918 368.875 237.824 368.758 237.824ZM363.133 238V238.105C363.156 238.176 363.273 238.211 363.484 238.211C363.695 238.211 363.988 238.141 364.363 238V237.859H364.223C363.707 237.859 363.344 237.906 363.133 238ZM359.969 239.125V239.195H360.004C360.215 239.195 360.531 238.973 360.953 238.527V238.422H360.918C360.684 238.422 360.367 238.656 359.969 239.125ZM364.855 238.879L364.68 239.02L364.785 239.195H365.242L365.348 239.09L365.137 238.879H364.855ZM359.688 241.727L359.582 241.797V242.324H359.617C359.711 242.301 359.758 242.219 359.758 242.078V241.797L359.688 241.727ZM372.449 244.539H372.414V244.609C372.461 244.797 372.508 244.891 372.555 244.891L372.59 244.715C372.543 244.598 372.496 244.539 372.449 244.539ZM371.641 245.77L371.535 245.84V245.945C371.629 246.297 371.723 246.473 371.816 246.473H371.887C371.887 246.168 371.816 245.934 371.676 245.77H371.641ZM361.34 245.98L360.953 246.156V246.332H361.023C361.188 246.332 361.305 246.238 361.375 246.051V245.98H361.34ZM360.953 249.32C361.117 250.727 361.316 251.43 361.551 251.43L361.902 251.887V251.922L361.586 251.887V251.992C362.031 252.602 362.945 253.164 364.328 253.68C364.492 253.773 364.727 253.844 365.031 253.891C365.453 253.891 367.07 253.199 369.883 251.816C370.07 251.699 370.164 251.57 370.164 251.43V251.254C369.953 250.293 369.777 249.168 369.637 247.879L369.566 247.844C369.566 247.586 369.309 247.375 368.793 247.211C367.059 246.719 365.875 246.473 365.242 246.473C363.461 246.871 362.242 247.469 361.586 248.266C361.164 248.688 360.953 249.039 360.953 249.32ZM371.535 247.035L371.43 246.965V247.07H371.535V247.035ZM371.676 247.703H371.465V247.844L371.57 247.949L371.676 247.844V247.703ZM370.551 248.582L370.445 248.688L370.551 248.828L370.691 248.793V248.688L370.586 248.582H370.551ZM371.816 248.688H371.711V248.723C371.758 249.613 371.852 250.059 371.992 250.059L372.062 249.988V249.918C372.062 249.426 371.98 249.016 371.816 248.688ZM370.445 249.812L370.41 249.848V250.059L370.516 250.199H370.551L370.691 250.059V249.848L370.586 249.812H370.445ZM373.434 253.117H373.328V253.328C373.422 253.633 373.527 253.785 373.645 253.785H373.75V253.68C373.656 253.305 373.551 253.117 373.434 253.117ZM360.496 253.223L360.426 253.293V253.328L360.496 253.398H360.672V253.328L360.566 253.223H360.496ZM372.344 253.68L372.238 253.785C372.309 253.949 372.402 254.055 372.52 254.102H372.555L372.695 253.961V253.891L372.52 253.68H372.344ZM367.246 254.172V254.242H367.387C367.715 254.242 368.148 254.102 368.688 253.82V253.785H368.547C367.75 253.879 367.316 254.008 367.246 254.172ZM373.117 254.277L373.047 254.418V254.488L373.188 254.629H373.328L373.434 254.559V254.488L373.258 254.277H373.117ZM364.434 254.559L364.328 254.664C364.375 254.781 364.469 254.84 364.609 254.84C364.867 254.793 364.996 254.734 364.996 254.664V254.629L364.891 254.559H364.434ZM360.602 255.051L360.496 255.191C360.59 255.402 361.176 255.672 362.254 256C362.605 256.164 363.074 256.246 363.66 256.246V256.211C363.66 256.141 363.215 256.012 362.324 255.824C361.809 255.684 361.27 255.426 360.707 255.051H360.602ZM389.781 239.617C390.695 239.617 391.469 240.262 392.102 241.551C392.219 241.551 392.383 241.703 392.594 242.008L393.051 244.609C392.887 244.891 392.266 245.031 391.188 245.031H390.836C389.969 244.891 389.535 244.598 389.535 244.152C389.535 243.824 389.266 243.367 388.727 242.781C388.656 242.664 388.152 242.605 387.215 242.605C386.324 242.605 385.246 242.84 383.98 243.309C383.09 244.246 382.504 244.973 382.223 245.488C382.387 249.496 382.445 252.004 382.398 253.012C382.398 253.223 382.539 253.328 382.82 253.328H383.664C384.039 253.352 384.227 253.422 384.227 253.539V253.574L384.367 254.031L384.297 256L384.086 256.281L382.434 256.457H382.293L381.59 256.668C378.895 256.574 377.547 256.469 377.547 256.352C377.078 256.352 376.844 256.141 376.844 255.719C376.797 255.297 376.773 254.863 376.773 254.418C376.773 253.973 377.23 253.68 378.145 253.539C378.145 253.352 378.461 253.258 379.094 253.258L379.199 253.223V253.152L378.988 243.52C378.988 242.934 378.836 242.641 378.531 242.641H378.32C378.039 242.641 377.57 242.77 376.914 243.027L376.844 242.957V242.887C376.844 242.84 376.938 242.781 377.125 242.711V242.641C376.891 242.641 376.773 241.984 376.773 240.672C376.727 240.672 376.691 240.461 376.668 240.039C377.605 239.312 378.59 238.949 379.621 238.949H380.5C380.852 238.949 381.449 239.066 382.293 239.301V239.406C382.082 239.734 381.977 239.969 381.977 240.109V240.355C383.875 239.512 386.477 239.266 389.781 239.617ZM380.57 244.926V245.102C380.688 245.336 380.746 245.582 380.746 245.84C380.723 245.934 380.688 246.414 380.641 247.281L380.711 248.688H380.746C380.816 248.688 380.91 247.598 381.027 245.418C381.074 245.418 381.098 245.184 381.098 244.715C381.074 244.504 381.016 244.398 380.922 244.398H380.852C380.664 244.516 380.57 244.691 380.57 244.926ZM378.461 255.543L378.004 255.578V255.648C378.004 255.766 378.344 255.824 379.023 255.824H380.078L380.324 255.789C380.324 255.672 379.703 255.59 378.461 255.543ZM384.543 241.129V241.199C384.754 241.199 385.035 240.859 385.387 240.18V240.004H385.352C384.742 240.191 384.473 240.566 384.543 241.129ZM389.078 242.254H389.254C389.371 242.23 389.594 241.949 389.922 241.41V241.375C389.922 241.328 389.875 241.305 389.781 241.305C389.383 241.492 389.184 241.738 389.184 242.043C389.16 242.043 389.125 242.113 389.078 242.254ZM380.992 243.062H380.852L380.676 243.801C380.676 243.918 380.746 244.035 380.887 244.152H380.922C380.992 244.152 381.051 243.988 381.098 243.66L380.992 243.062ZM385.879 240.355L386.055 241.059H386.336V240.32L386.23 240.215H386.125C385.961 240.238 385.879 240.285 385.879 240.355ZM378.215 254.98L378.145 255.051L378.18 255.121H380.113V255.016L378.918 254.98H378.215ZM377.582 240.32C377.77 240.508 377.969 240.602 378.18 240.602L378.215 240.531V240.285L378.074 240.109C377.746 240.156 377.582 240.227 377.582 240.32ZM381.133 255.227L381.238 255.332H381.766L381.906 255.191C381.906 255.145 381.848 255.098 381.73 255.051C381.332 255.098 381.133 255.156 381.133 255.227ZM391.258 241.27H391.152V241.34C391.34 241.527 391.504 241.621 391.645 241.621H391.75V241.551C391.562 241.363 391.398 241.27 391.258 241.27ZM379.199 239.617H379.094V239.758L379.305 240.004H379.621V239.934L379.199 239.617ZM378.145 241.691V241.762H378.25C378.508 241.762 378.648 241.715 378.672 241.621L378.602 241.516H378.531C378.32 241.516 378.191 241.574 378.145 241.691ZM387.145 240.039L386.723 240.074V240.109L386.793 240.215H387.145C387.309 240.215 387.402 240.168 387.426 240.074L387.355 240.039H387.145ZM381.59 251.359L381.449 251.465V251.746H381.59L381.73 251.641V251.43L381.66 251.359H381.59ZM377.371 255.191L377.23 255.051L377.16 255.191V255.332L377.23 255.438H377.371V255.191ZM382.293 241.902L382.152 241.938V242.043L382.293 242.148H382.398L382.504 242.043V241.938L382.293 241.902ZM387.848 240.004V240.074H388.094L388.234 239.969L388.129 239.863C387.941 239.91 387.848 239.957 387.848 240.004ZM390.168 240.004L390.098 240.074V240.109L390.168 240.215H390.309L390.379 240.109V240.074L390.309 240.004H390.168ZM381.625 239.652L381.449 239.723V239.863H381.625L381.73 239.723L381.625 239.652ZM381.52 240.285L381.379 240.391V240.461L381.449 240.531L381.625 240.391V240.285H381.52ZM390.062 243.203V243.273H390.133L390.273 243.168V243.062H390.238C390.121 243.133 390.062 243.18 390.062 243.203ZM388.867 240.109L388.727 240.215V240.25H388.902L388.973 240.18V240.109H388.867ZM381.59 252.133H381.52V252.273H381.59V252.133ZM402.684 238.352C403.668 238.352 404.863 238.773 406.27 239.617C407.465 240.508 408.062 241.117 408.062 241.445C409 243.414 409.469 244.598 409.469 244.996L409.504 245.277C409.152 246.098 408.977 246.66 408.977 246.965L408.766 247H405.777C405.496 247 405.156 247.035 404.758 247.105C401.383 246.824 399.016 246.684 397.656 246.684H396.918C396.637 247.105 396.496 247.41 396.496 247.598C396.66 247.855 396.742 248.266 396.742 248.828C396.742 249.719 396.883 250.246 397.164 250.41L397.199 250.586V250.621L396.988 250.516V250.621L397.305 250.973C397.305 251.277 397.516 251.664 397.938 252.133C398.711 253.492 399.555 254.336 400.469 254.664C401.242 254.922 402.121 255.051 403.105 255.051C403.27 255.051 403.609 254.898 404.125 254.594C404.547 254.5 405.438 253.738 406.797 252.309V252.203C406.797 252.156 406.633 252.109 406.305 252.062L406.234 251.887C406.773 250.855 407.418 250.176 408.168 249.848C408.379 250.059 408.812 250.387 409.469 250.832C409.984 251.629 410.676 252.566 411.543 253.645V253.785C410.793 254.77 410.254 255.262 409.926 255.262H409.785C409.785 254.746 409.469 254.453 408.836 254.383C408.719 254.383 408.203 254.77 407.289 255.543C406.75 255.965 405.824 256.363 404.512 256.738C402.988 257.043 401.91 257.195 401.277 257.195L399.273 256.492C398.148 256.492 397.117 255.883 396.18 254.664C395.781 254.242 395.453 253.738 395.195 253.152C395.195 252.965 394.938 251.992 394.422 250.234C394.258 249.555 394.176 248.898 394.176 248.266V248.23C394.176 245.113 395.113 242.383 396.988 240.039C397.223 239.453 397.762 239.02 398.605 238.738C399.168 238.574 399.848 238.445 400.645 238.352C400.855 238.258 401.535 238.258 402.684 238.352ZM399.449 239.09V239.125H399.52C399.895 239.125 400.598 238.996 401.629 238.738C401.84 238.715 401.945 238.656 401.945 238.562L401.84 238.457H401.805C401.125 238.457 400.363 238.645 399.52 239.02L399.449 239.09ZM398.043 239.688V239.723L398.148 239.793H398.184C398.652 239.676 398.887 239.559 398.887 239.441V239.23L398.746 239.09H398.676C398.254 239.23 398.043 239.43 398.043 239.688ZM403.457 239.336H402.402V239.406C402.402 239.5 402.883 239.57 403.844 239.617H403.879V239.477C403.879 239.43 403.738 239.383 403.457 239.336ZM400.961 239.863V239.898C400.961 239.992 401.441 240.109 402.402 240.25L402.473 240.215V240.074C402.285 239.816 401.969 239.688 401.523 239.688H401.418C401.113 239.711 400.961 239.77 400.961 239.863ZM403.105 240.074V240.109C404.441 240.883 405.156 241.27 405.25 241.27H405.285L405.637 241.129L405.848 241.199L405.883 241.129V241.094C405.789 241.023 405.59 240.953 405.285 240.883L404.582 240.566C404.395 240.168 404.02 239.969 403.457 239.969H403.352C403.188 239.992 403.105 240.027 403.105 240.074ZM398.922 241.094C399.156 240.906 399.625 240.707 400.328 240.496V240.426L400.293 240.355H399.941C399.262 240.543 398.922 240.789 398.922 241.094ZM397.059 243.414V243.52C397.059 243.777 399.191 244.07 403.457 244.398L403.809 244.504L404.266 244.469C405.203 244.773 405.836 244.926 406.164 244.926C406.164 244.996 406.234 245.055 406.375 245.102C406.516 244.891 406.586 244.691 406.586 244.504V243.836C406.586 243.531 406 242.852 404.828 241.797C404.289 241.258 403.68 240.953 403 240.883L401.805 240.672C399.859 241.07 398.582 241.551 397.973 242.113C397.715 242.605 397.41 243.039 397.059 243.414ZM397.445 241.305V241.375H397.516C397.82 241.305 397.973 241.223 397.973 241.129V241.094H397.797C397.68 241.094 397.562 241.164 397.445 241.305ZM405.848 241.797C405.895 241.984 406 242.078 406.164 242.078H406.234L406.305 241.973V241.762L406.164 241.586C405.953 241.586 405.848 241.656 405.848 241.797ZM396.777 241.973L396.707 242.078V242.113H396.777L396.918 242.008V241.973H396.777ZM406.727 242.254H406.586C406.844 243.027 407.031 243.449 407.148 243.52H407.289L407.395 243.449C407.207 242.699 407.008 242.324 406.797 242.324L406.727 242.254ZM397.094 242.887C397.234 242.863 397.305 242.77 397.305 242.605V242.57C397.164 242.617 397.094 242.723 397.094 242.887ZM407.922 243.836L407.816 243.906V244.152L407.922 244.293C408.016 244.27 408.062 244.188 408.062 244.047V243.906L408.027 243.836H407.922ZM396.707 244.328V244.469L396.777 244.539H396.848C397.012 244.469 397.152 244.34 397.27 244.152V244.047H397.094C396.953 244.047 396.824 244.141 396.707 244.328ZM395.266 244.117C395.078 244.305 394.914 244.773 394.773 245.523H394.844C394.984 245.523 395.195 245.113 395.477 244.293C395.43 244.176 395.359 244.117 395.266 244.117ZM398.852 244.539V244.645C399.297 244.949 400.105 245.102 401.277 245.102H401.594L402.051 245.066V244.926C401.09 244.715 400.023 244.586 398.852 244.539ZM405.285 245.453H405.18V245.559H405.285V245.453ZM398.5 245.734V245.805C398.969 245.922 400.211 246.039 402.227 246.156V246.191V246.227L401.488 246.332C401.488 246.402 401.793 246.438 402.402 246.438C403.387 246.438 403.879 246.391 403.879 246.297C403.879 246.062 402.086 245.875 398.5 245.734ZM394.949 245.98H394.773V246.191C394.773 246.332 394.809 246.402 394.879 246.402C394.996 246.402 395.066 246.285 395.09 246.051L394.949 245.98ZM397.797 246.051L397.621 246.086V246.297H397.797V246.156V246.086V246.051ZM396.672 246.332V246.367H396.707L397.305 246.297V246.227L397.199 246.086H397.094C396.883 246.086 396.742 246.168 396.672 246.332ZM405.215 246.402C405.215 246.496 405.426 246.543 405.848 246.543L406.164 246.508V246.438C406.164 246.344 405.941 246.297 405.496 246.297C405.309 246.344 405.215 246.379 405.215 246.402ZM394.773 247.316V247.422V247.457C394.75 247.527 394.738 247.691 394.738 247.949V248.09C394.738 248.512 394.855 248.887 395.09 249.215H395.125C395.125 248.09 395.008 247.457 394.773 247.316ZM395.406 250.375H395.301V250.445L395.406 250.516H395.477V250.445L395.406 250.375ZM395.652 250.973L395.617 251.008V251.078C395.711 251.453 395.852 251.641 396.039 251.641V251.605V251.535C396.039 251.348 395.91 251.16 395.652 250.973ZM407.113 251.289L407.184 251.395H407.359C407.5 251.395 407.582 251.348 407.605 251.254L407.465 251.113H407.43C407.266 251.113 407.16 251.172 407.113 251.289ZM406.305 253.328L406.375 253.363H406.41C406.668 253.363 406.832 253.211 406.902 252.906V252.836C406.645 252.836 406.445 253 406.305 253.328ZM408.766 253.258L408.801 253.293H408.906C409.047 253.199 409.117 253.07 409.117 252.906H409.012C408.848 253 408.766 253.117 408.766 253.258ZM409.996 252.906H409.961V252.977C410.031 253.258 410.137 253.398 410.277 253.398H410.312L410.383 253.328V253.293C410.336 253.035 410.207 252.906 409.996 252.906ZM407.957 253.645L408.062 253.715C408.414 253.598 408.59 253.445 408.59 253.258V253.188H408.555C408.227 253.188 408.027 253.34 407.957 253.645ZM405.215 254.418H405.285C405.473 254.348 405.578 254.23 405.602 254.066L405.566 254.031C405.332 254.172 405.215 254.301 405.215 254.418ZM407.289 254.594H407.43C407.664 254.383 407.781 254.23 407.781 254.137H407.746C407.441 254.23 407.289 254.383 407.289 254.594ZM397.305 254.91H397.199V255.051C397.246 255.168 397.445 255.297 397.797 255.438L397.938 255.543C397.68 255.145 397.469 254.934 397.305 254.91ZM399.766 255.051H399.73V255.086C399.73 255.18 399.977 255.285 400.469 255.402L400.504 255.367V255.297C400.199 255.133 399.953 255.051 399.766 255.051ZM401.84 255.438H401.734V255.543H401.84V255.438ZM405.496 255.965C405.73 255.965 405.918 255.789 406.059 255.438H405.953C405.648 255.602 405.496 255.777 405.496 255.965ZM403.035 256.316L402.297 256.246H402.156C401.945 256.246 401.828 256.293 401.805 256.387V256.457L401.945 256.562H402.578C403.305 256.562 404.16 256.434 405.145 256.176C405.098 256.035 404.957 255.965 404.723 255.965H404.547C403.984 255.965 403.48 256.082 403.035 256.316Z" fill="#DCDCDC"/>
<defs>
<filter id="filter0_d" x="0" y="0" width="286.872" height="357.713" filterUnits="userSpaceOnUse" color-interpolation-filters="sRGB">
<feFlood flood-opacity="0" result="BackgroundImageFix"/>
<feColorMatrix in="SourceAlpha" type="matrix" values="0 0 0 0 0 0 0 0 0 0 0 0 0 0 0 0 0 0 127 0"/>
<feOffset dy="4"/>
<feGaussianBlur stdDeviation="12.5"/>
<feColorMatrix type="matrix" values="0 0 0 0 0.960784 0 0 0 0 0.623529 0 0 0 0 0.0627451 0 0 0 1 0"/>
<feBlend mode="normal" in2="BackgroundImageFix" result="effect1_dropShadow"/>
<feBlend mode="normal" in="SourceGraphic" in2="effect1_dropShadow" result="shape"/>
</filter>
<linearGradient id="paint0_linear" x1="72.8383" y1="40.5273" x2="65.1113" y2="273.463" gradientUnits="userSpaceOnUse">
<stop offset="0.125" stop-color="#6A0404"/>
<stop offset="0.364583" stop-color="#AA3535"/>
<stop offset="0.427319" stop-color="#DADADA"/>
<stop offset="0.494792" stop-color="#BD5050"/>
<stop offset="0.530314" stop-color="#6A0404"/>
<stop offset="0.796875" stop-color="#460808"/>
</linearGradient>
</defs>
</svg>
